<svg xmlns="http://www.w3.org/2000/svg" xmlns:xlink="http://www.w3.org/1999/xlink" width="2086.453" height="1839.938" viewBox="0 0 2086.453 1839.938">
  <defs>
    <linearGradient id="linear-gradient" x1="0.5" x2="0.5" y2="1" gradientUnits="objectBoundingBox">
      <stop offset="0" stop-color="#3d2c8d"/>
      <stop offset="1" stop-color="#763abe"/>
    </linearGradient>
    <filter id="Rectangle_35" x="254.034" y="0" width="1832.419" height="1839.938" filterUnits="userSpaceOnUse">
      <feOffset dy="10" input="SourceAlpha"/>
      <feGaussianBlur stdDeviation="10" result="blur"/>
      <feFlood flood-opacity="0.557"/>
      <feComposite operator="in" in2="blur"/>
      <feComposite in="SourceGraphic"/>
    </filter>
  </defs>
  <g id="Group_1313" data-name="Group 1313" transform="translate(-680.273 -30.83)">
    <path id="Path_1215" data-name="Path 1215" d="M531.351,524.807l9.4-2.115L502,413.495l-83.659-30.822s-.32.355-.912.968c-7.136-6.906-10.165-16.927-11.43-24.815a49.3,49.3,0,0,0,22.984-72.4c6.894-1.655,9.355-7.909,11.669-15.366a30.844,30.844,0,0,0-4.372-.952l3.252-7.293-5.716-.513,1.461-6.818-7.289,5.032a14.891,14.891,0,0,0-2.482-14.217,28.442,28.442,0,0,0-12.191-8.6,54.392,54.392,0,0,0-55.815,9.755l-.527-2.053a70.839,70.839,0,0,0-27.055,46.885c-2.333,18.379,6.5,37.094,17.973,51.638-.1-.635-.2-1.268-.306-1.9q.744,1.025,1.537,2.011l1.411,53.608L347,400.672c-.006,0-59.28,26.82-61.591,58.85l-.007.023c-3.558,15.593-5.319,96.611-5.319,96.611h4.877l-4.877,31.7-31.7,123.287s-40.509,52.837-5.284,63.4c21.889,6.567,28.134-18.829,29.727-39,1.268,5,5.061,8.38,12.543,9.06.589.054,1.217.1,1.826.147-16.655,43.042-5.348,183.023-5.348,183.023-8.806,17.612,95.107,139.139,95.107,139.139l6.257-3.337,1.354,2.708c-3.482.334-5.85.629-5.85.629v54.6s-15.851,54.6,5.284,65.166c5.469,2.734,11.173.745,16.625-3.7-1.042,16.849-2.535,41.993-2.535,47.728,0,8.806,22.9,24.657,22.9,24.657s5.284,19.374,47.554,19.374,10.568-51.076,10.568-51.076l-22.9-51.076s-1.713.838-6.9-3.383l1.857-20.425,10.325.911,14.09-206.066s12.329-183.17,14.09-211.35a196.114,196.114,0,0,0-.637-27.092l51.713-106.763ZM493.2,593.142l-5.284,18.413V570.833ZM273.316,723.754c.044-6.455-.277-10.847-.277-10.847l34.432-68.865-.969,21.311S278.927,700.235,273.316,723.754ZM354.057,922.5l33.464-118,19.374,142.661-1.389,51.864a82.685,82.685,0,0,1-5.656-14.878C394.566,963,354.057,922.5,354.057,922.5Z" transform="translate(792.833 283.867)"/>
    <g transform="matrix(1, 0, 0, 1, 680.27, 30.83)" filter="url(#Rectangle_35)">
      <rect id="Rectangle_35-2" data-name="Rectangle 35" width="1287.192" height="1243.567" rx="264" transform="matrix(0.62, -0.79, 0.79, 0.62, 284.03, 1034.32)" fill="url(#linear-gradient)"/>
    </g>
    <g id="Group_1305" data-name="Group 1305" transform="translate(680.273 248.745)">
      <path id="Path_1213" data-name="Path 1213" d="M1022.337,615.316c-3.845-9.888,1.648-14.833,3.846-23.622s-4.944-36.257-4.944-36.257S998.166,460.4,991.024,441.72c-3.022-7.9-9.586-13.341-16.152-16.993-.445-2.425-1.089-3.988-1.977-4.432-6.363-3.184-22.215-10.1-32.779-12.008a53.608,53.608,0,0,0-6.985-9.446,22.327,22.327,0,0,0,2.489-11.564c-.673-10.364-8.522-19.652-7.5-29.988.774-7.839,6.505-14.278,8.717-21.838a25.681,25.681,0,0,0-2.919-20.251l4.875,5.186a18.217,18.217,0,0,0-1.359-22.011c-5.146-5.684-13.75-7.816-17.742-14.362-4.1-6.726-1.9-15.866-5.78-22.724-9.5-16.8-33.831-4.891-48.4-10.754-5.988-2.41-10.54-5.061-17.277-4.871a67.509,67.509,0,0,0-16.853,3.147,35.607,35.607,0,0,0-19.315,13.845,11.974,11.974,0,0,1,1.509-1.442c3.531-2.767,9.724-2.537,11.588,1.543a6.837,6.837,0,0,1,.544,3.259c-.306,4.919-4.6,8.592-8.873,11.053s-9.073,4.521-11.86,8.586c-4.6,6.708-1.895,15.711-1.892,23.844a34.567,34.567,0,0,1-13.1,26.84l15.5-6.337a117.158,117.158,0,0,0-14.316,41.982l20.959-17.315a92.158,92.158,0,0,0-13.766,40.911l16.823-17.238a8.508,8.508,0,0,1,1.11,4.425l-1.755,6.767a43.982,43.982,0,0,1-2.058,3.928c-2.707,4.648-5.506,10.37-2.974,15.117l.012-.006c-2.665,8.967-6.685,17.939-15.629,22.3,9.92,1.038,20.274-3.922,24.754-11.817a22.121,22.121,0,0,0,2.632,3.988c.288.361.572.718.857,1.077l-2.472,1.648-6.625,4.417s-43.4,8.79-40.652,25.27c.113.678.248,1.487.4,2.395L760.3,479.076,742.167,540.6s-9.339,19.777-7.691,28.017,0,11.536,0,26.369-7.142,20.875,0,32.961S763.042,675.2,763.042,675.2l4.706,3.529a22,22,0,0,0,.239,6.359c4.395,21.974,45.6,232.376,45.6,232.376s-20.875,166.454,21.425,176.892c5.305,1.309,10.515,2.5,15.576,3.554l6.4,42.042-3.846,53.287s-29.115,65.922,24.172,69.768,29.116-57.133,29.116-57.133a28.964,28.964,0,0,0,3.3-17.03c-.544-4.89-5.118-30.338-9.6-54.814,20.223-2.425,16.439-23.887,13.744-33.324a5.464,5.464,0,0,0,2.451-3.055c.609-2.192-.809-10.812-3.38-22.893-2.095-12.009-5.674-31.451-8.116-44.62l13.144,2.14,55.485-325.217s.366-5.177.2-12.749a205.945,205.945,0,0,1,23.423-10.323c18.129-7.142,25.27-33.51,31.313-44.5S1026.183,625.2,1022.337,615.316Zm-197-207.066a11.75,11.75,0,0,1,6.077-2.061c-.47,2.555-4.864,3.3-8.549,4.64A10.88,10.88,0,0,1,825.337,408.249ZM797.652,571.917c4.451,7.312-3.607,27.126-10.869,42.85-4.161-3.586-8.5-2.455-3.414-12.636a51.678,51.678,0,0,0,6.043-20.875c0-1.256.644-10.485,6.057-14.319A28.879,28.879,0,0,0,797.652,571.917Zm-16.672,63.109c2.519-1.025,6.333-2.6,11.483-4.352-2.468,3.239-5.285,7.1-8.119,11.31a8.509,8.509,0,0,1-3.365-6.958Zm178.182,7.208c-3.34-3.549-6.039-6.723-8.26-9.563q6.216,1.636,12.656,3.52a15.057,15.057,0,0,0,6.4-.427c.191,3.8.191,9.216.191,9.216l-6.017,4.166a35.28,35.28,0,0,0-4.97-6.912Zm17.048-19.052c-.064.056-.133.12-.2.179a36.429,36.429,0,0,0-1.467-6.4c-3.6-11.355-5.524-31.5-6.548-48.693l10.393,34.959s.55,17.579-2.179,19.952Z" transform="translate(578.402 51.541)" fill="#d0cde1"/>
      <path id="Path_1214" data-name="Path 1214" d="M929.238,515.526s-56.36-96.869-58.121-107.436-29.941-29.941-29.941-29.941c-9.628-9.628-25.425-12.675-42.05-12.516,6.261-5.179-16.092-8.661-17.832-12.141-1.761-3.522-7.045-3.522-14.09-8.806s-24.629-.881-24.631-.881a64.9,64.9,0,0,1-5.464-17.553,49.107,49.107,0,0,0,11.6-31.762c0-.126-.009-.251-.01-.377.448.7.9,1.4,1.345,2.123,3.3-19.763,9.123-36.19-1.977-54.219a60.788,60.788,0,0,0-34.579-26.435l-10.572,8.458,4.11-9.865a55.953,55.953,0,0,0-10.449-.6l-9.513,12.23L691,213.989A60.208,60.208,0,0,0,649.47,238.7c-12.107,17.457-11.3,41.723.611,59.317.04-.123.072-.244.111-.367a49.3,49.3,0,0,0,25.2,39.92l2.991,23.929h0a16.4,16.4,0,0,1-9.806,4.326c-5.284,0-10.567,14.09-10.567,14.09s-2.995,1.511-6.222,8.645c-8.314,5.66-33.676,23.44-43.085,35.865-5.566,2.739-11.545,8.832-10.575,22.417,1.761,24.658,0,139.139,0,139.139s-15.851,96.869-10.567,103.914-1.761,29.941-1.761,29.941l5.284,1.174v5.871s-15.892,73.671,8.806,70.45c40.509-5.284,10.568-65.166,10.568-65.166v-6.849l7.045,1.566s3.523-24.657,10.567-26.419c2.45-.613,5.327-7.2,8.036-15.517,1.58,12.981,2.531,20.8,2.531,20.8l11.021-2.449,3.07,11.255a15.189,15.189,0,0,0,2.367,1.072l-2.367,13.018s-1.761,14.09,0,22.9c.888,4.441,33.581,99.37,65.774,192.387l-.608,22.485s-15.851,17.613-12.329,29.941-8.806,114.481-8.806,114.481L686.187,1161.9l2.659.818-2.441,8.95a17.761,17.761,0,0,0-5.5,4.322c-14.09,15.851-31.7,61.644-31.7,61.644s-31.7,47.554,17.612,45.792,52.837-19.374,52.837-19.374,7.045-45.793,7.045-47.554-3.523-19.866-3.523-19.866l-1.368-1.509.955-21.97,9.219,2.837s8.806-45.792,15.851-51.076c2.462-1.846,9.013-22.417,16.492-48.839,7.645,22.012,15.048,98.124,17.45,105.033a24.985,24.985,0,0,0-2.24,3.688,427.973,427.973,0,0,1-26.419,44.031s-56.36,33.464,0,42.27c0,0,31.7,1.761,47.554-8.806s58.121-26.419,58.121-29.941-10.567-55.3-21.135-49.667h0l-7.079-16.281,7.079-2.74-44.59-200.148a101.1,101.1,0,0,0,2.32-12.963c0-9.223,22.805-188.815,28.609-234.366,25.541,7.236,48.886-45.672,48.886-45.672l5.79-10.422,8.3,5.138s7.045-17.612,17.612-19.374,29.941-95.107,29.941-107.436A57.33,57.33,0,0,0,929.238,515.526Zm-82.06,137.992a47.459,47.459,0,0,0-6-7.659,218.12,218.12,0,0,0,10.567-36.986c3.523-19.374-5.284-82.779-5.284-82.779l-.154-4.306c8.644,11.348,19.527,26.477,19.527,30.725a13.209,13.209,0,0,0,5.284,10.567L860.55,600.066s-7.045,17.612-8.806,26.419a89.937,89.937,0,0,0-1.761,15.851l2.5,1.545Z" transform="translate(411.98 14.803)" fill="#d0cde1"/>
      <path id="Path_1216" data-name="Path 1216" d="M767.711,1219.961c-16.5-6.795-48.536-21.356-52.419-29.121s-23.3-67.95-23.3-67.95l-5,.364c-.645-27.341-3.4-133.3-7.62-145.972,0,0,20.385-167.935-20.385-234.914l-7.346-29.677c2.411-11.9,2.1-39.446.551-44.1-1.942-5.824,22.327-24.268,15.532-35.917s-25.239-51.448-25.239-51.448,1.941-25.239-24.268-48.536c0,0-7.659-43.361-42.173-44.007-4.666-8.143-11.2-21.09-9.275-26.855,2.058-6.172,9.925-25.415,14.368-36.186a46.494,46.494,0,0,0,6.777-3.771c27.449-12.3,46.8-41.863,46.8-76.4,0-36.972-22.167-68.261-52.714-78.753a26.2,26.2,0,1,0-50.691-9.4,26.182,26.182,0,0,1,29.218-35.849,26.186,26.186,0,0,0-28.056,43.726,25.978,25.978,0,0,0,1.07,2.816c-28.744,11.6-49.248,41.9-49.248,77.46,0,32.984,17.647,61.436,43.144,74.643-.136,10.729-2.8,28.818-17.594,39.842-7.644-3.492-18.251-7.326-25.057-5.587-3.519-2.744-8.831-3.649-16.058,3.578-14.561,14.561-27.18,52.419-27.18,75.716s2.912,158.227,2.912,158.227-15.532,5.824-4.854,14.561a12.589,12.589,0,0,0,7.842,2.914l10.6,78.626s-6.795,75.716,19.415,76.687a10.371,10.371,0,0,0,5.867-1.44l-19.457,87.834s-44.653,29.122-79.6,86.394c-18,29.5-26.973,47.646-31.455,58.33l-6.4-3.97-22.326,42.712s-49.507,30.092-38.829,52.419,20.385,28.151,20.385,28.151l6.8-2.912,12.619,23.3s33,47.565,86.394,23.3a19.511,19.511,0,0,0,0-23.3c-8.736-12.619-31.063-39.8-31.063-39.8l14.561-73.775-3.013-1.868,92.32-111.706s27.18-16.5,36.887-31.063S591.04,812.259,591.04,812.259l33.975,157.257s-1.941,57.273,6.8,94.16a399.68,399.68,0,0,1,9.287,62.916l-2.492.181,5.824,43.683s-25.239,62.126-7.766,66.98a255.992,255.992,0,0,0,37.858,6.8l1.941-6.8s74.746,40.77,101.926,10.678C778.389,1248.112,784.213,1226.756,767.711,1219.961ZM501.733,743.337c2.912,2.912,1.942,16.5,1.942,16.5L497.851,797.7l-5.817,26.259a282.063,282.063,0,0,0-4.861-36.937l-2.687-72.55a5.6,5.6,0,0,0,1.716.717c1.941,0,.971-16.5.971-16.5s1.133-2.947,2.547-7.6c3.774,11.3,8.381,18.669,13.956,20.217l.971,12.619s-12.619,5.824-.971,5.824a9.175,9.175,0,0,0,2-.3l-1.03,5.151S498.821,740.425,501.733,743.337Z" transform="translate(66.523 20.97)" fill="#d0cde1"/>
      <ellipse id="Ellipse_93" data-name="Ellipse 93" cx="780.322" cy="12.862" rx="780.322" ry="12.862" transform="translate(37.32 1260.427)"/>
      <ellipse id="Ellipse_94" data-name="Ellipse 94" cx="858.349" cy="33.228" rx="858.349" ry="33.228" transform="translate(232.401 1273.289)"/>
      <ellipse id="Ellipse_95" data-name="Ellipse 95" cx="421.245" cy="33.228" rx="421.245" ry="33.228" transform="translate(511.087 1322.595)"/>
      <ellipse id="Ellipse_96" data-name="Ellipse 96" cx="187.577" cy="17.15" rx="187.577" ry="17.15" transform="translate(1353.577 1378.333)"/>
      <ellipse id="Ellipse_97" data-name="Ellipse 97" cx="88.965" cy="17.15" rx="88.965" ry="17.15" transform="translate(1194.94 1436.214)"/>
      <ellipse id="Ellipse_98" data-name="Ellipse 98" cx="88.965" cy="17.15" rx="88.965" ry="17.15" transform="translate(470.356 1363.327)"/>
      <path id="Path_1217" data-name="Path 1217" d="M465.909,556.886l8.575,60.025,42.875-4.287-4.288-62.169Z" transform="translate(532.879 629.581)" fill="#ffb8b8"/>
      <path id="Path_1218" data-name="Path 1218" d="M398.359,556.886l-8.575,60.025-42.875-4.287,4.288-62.169Z" transform="translate(396.774 629.581)" fill="#ffb8b8"/>
      <path id="Path_1219" data-name="Path 1219" d="M478.944,371.225s-38.587,45.019-30.012,115.762,23.581,231.524,23.581,231.524l10.719,285.117,68.6-4.287L562.549,757.1l34.3-195.08L689.03,789.254s45.019,212.23,47.162,212.23,64.312-6.431,64.312-6.431L770.492,744.235S723.33,379.8,695.461,373.368,478.944,371.225,478.944,371.225Z" transform="translate(254.021 193.559)"/>
      <path id="Path_1220" data-name="Path 1220" d="M644.742,687.952s-38.587-25.725-53.593,4.287-2.144,51.45-2.144,51.45,12.862,8.575,6.431,17.15-8.575,64.312,47.162,55.737,27.869-66.456,27.869-66.456Z" transform="translate(409.783 545.678)"/>
      <path id="Path_1221" data-name="Path 1221" d="M482.71,687.952S521.3,662.228,536.3,692.24s2.144,51.45,2.144,51.45-12.862,8.575-6.431,17.15,8.575,64.312-47.162,55.737-27.869-66.456-27.869-66.456Z" transform="translate(256.686 545.678)"/>
      <path id="Path_1222" data-name="Path 1222" d="M486.768,181.7s19.294,53.594,4.288,83.606,23.581,64.312,23.581,64.312,100.756-51.45,87.893-77.175-34.3-60.025-30.012-81.462Z" transform="translate(298.718 -33.871)" fill="#ffb8b8"/>
      <circle id="Ellipse_99" data-name="Ellipse 99" cx="68.6" cy="68.6" r="68.6" transform="translate(754.402 30.992)" fill="#ffb8b8"/>
      <path id="Path_1223" data-name="Path 1223" d="M497.28,226.22s68.831,57.277,120.165-23.883l53.478,30.314L698.792,558.5S542.3,648.537,467.268,571.362l10.719-302.267Z" transform="translate(276.415 1.996)" fill="#d0cde1"/>
      <path id="Path_1224" data-name="Path 1224" d="M428.274,91.488l-96.646,64.242,30.2,139.666,4.1,18.971L320.909,560.9,393.8,451.566Z" transform="translate(367.037 104.642)"/>
      <path id="Path_1225" data-name="Path 1225" d="M545.115,190.169l23.737,15.667,96.468,34.3L650.315,505.96l40.731,171.5-57.881,30.012S622.446,626.01,555.99,585.279,529.953,202.37,545.115,190.169Z" transform="translate(335.611 -11.921)"/>
      <path id="Path_1226" data-name="Path 1226" d="M469.993,384.478l27.869,19.294s-35.372,37.515-41.8,31.084a17.578,17.578,0,0,1-5.359-13.934l-6.431-15.006Z" transform="translate(250.109 210.318)" fill="#ffb8b8"/>
      <path id="Path_1227" data-name="Path 1227" d="M559.694,382.532l-9.475,14.889s-27.869,12.862-21.437,21.437,60.025,27.869,70.743,8.575l10.719-19.294Z" transform="translate(345.669 208.093)" fill="#ffb8b8"/>
      <path id="Path_1228" data-name="Path 1228" d="M475.554,227.478l-15.006,2.144L435.895,389.33s-9.647,28.94,1.072,97.54S458.3,600.141,458.3,600.141l47.267-33.952-21.437-55.737L512,306.8Z" transform="translate(235.973 30.751)"/>
      <path id="Path_1229" data-name="Path 1229" d="M607.867,211.478l34.3,4.288s38.587,40.731,45.019,83.606,4.287,165.068,4.287,165.068L592.861,620.932l-53.594-38.587L614.3,449.433,577.855,290.8Z" transform="translate(358.764 12.451)"/>
      <path id="Path_1230" data-name="Path 1230" d="M611.308,144.569a80.141,80.141,0,0,0-45.587-34.85l-13.938,11.15,5.419-13.005a73.774,73.774,0,0,0-13.776-.8l-12.541,16.124,5.19-15.571A79.375,79.375,0,0,0,481.32,140.19c-15.961,23.014-18.654,55.02-2.956,78.214,4.309-13.243,9.54-25.67,13.849-38.913a39.2,39.2,0,0,0,10.211.05l5.243-12.234,1.465,11.716c16.25-1.416,40.354-4.524,55.76-7.372l-1.5-8.988,8.963,7.469c4.72-1.087,7.523-2.072,7.291-2.825,11.458,18.471,22.811,30.269,34.268,48.741C618.264,189.994,625.942,168.337,611.308,144.569Z" transform="translate(277.11 -107.022)" fill="#2f2e41"/>
      <ellipse id="Ellipse_100" data-name="Ellipse 100" cx="4.644" cy="9.288" rx="4.644" ry="9.288" transform="translate(879.976 88.149)" fill="#ffb8b8"/>
      <path id="Path_1231" data-name="Path 1231" d="M975,798.666c1.976,67.653-37.553,92.446-87.161,93.895q-1.728.05-3.441.062-3.451.026-6.835-.115c-44.865-1.863-80.379-25.678-82.216-88.595-1.9-65.111,78.915-149.71,84.979-155.968l.011-.006c.23-.239.348-.358.348-.358S973.027,731.018,975,798.666Z" transform="translate(651.618 511.239)" fill="#6c63ff"/>
      <path id="Path_1232" data-name="Path 1232" d="M857.879,882.3l31.513-46.862-31.448,51.9.066,5.273q-3.451.026-6.835-.115l1.563-67.784-.043-.523.058-.1.15-6.405-34.51-50.1L852.861,812.9l.122,1.354,1.181-51.213-29.808-51.947,29.893,42.95-.312-106.1v-.353l.01.347,1.979,83.621,27.166-33.967-27.077,41.171.593,45.809,25-44.708L856.7,791.3l.33,25.472L893.384,754.5,857.14,825.66Z" transform="translate(678.01 511.245)" fill="#000002"/>
      <path id="Path_1233" data-name="Path 1233" d="M439,751.666c1.976,67.653-37.553,92.446-87.161,93.895q-1.728.05-3.441.062-3.451.026-6.835-.115c-44.865-1.862-80.379-25.678-82.216-88.595-1.9-65.111,78.915-149.71,84.979-155.968l.011-.006c.23-.239.348-.358.348-.358S437.028,684.018,439,751.666Z" transform="translate(38.573 457.484)" fill="#6c63ff"/>
      <path id="Path_1234" data-name="Path 1234" d="M321.878,835.3l31.513-46.863-31.448,51.9.066,5.273q-3.451.026-6.835-.115l1.563-67.784-.043-.523.058-.1.15-6.405-34.51-50.1L316.861,765.9l.122,1.354,1.181-51.213-29.807-51.947,29.892,42.95-.312-106.1v-.353l.01.347,1.979,83.621,27.166-33.967-27.077,41.171.593,45.809,25-44.708L320.7,744.3l.33,25.472L357.384,707.5,321.14,778.66Z" transform="translate(64.964 457.489)" fill="#3f3d56"/>
      <path id="Path_1235" data-name="Path 1235" d="M799.926,809.863c1.16,39.71-22.043,54.263-51.161,55.114q-1.015.03-2.02.036-2.026.015-4.012-.068c-26.335-1.094-47.18-15.072-48.259-52-1.116-38.219,46.322-87.876,49.881-91.55l.006,0c.135-.14.2-.21.2-.21S798.766,770.156,799.926,809.863Z" transform="translate(536.257 595.418)" fill="#6c63ff"/>
      <path id="Path_1236" data-name="Path 1236" d="M731.176,858.956l18.5-27.507-18.459,30.466.039,3.1q-2.026.015-4.012-.068l.917-39.787-.025-.307.034-.059.088-3.76L708,791.62l20.233,26.6.072.795L729,788.95l-17.5-30.492,17.546,25.211-.183-62.278v-.207l.006.2,1.161,49.084,15.946-19.938L730.082,774.7l.348,26.889L745.1,775.346l-14.619,30.2.194,14.952,21.339-36.555-21.275,41.771Z" transform="translate(551.748 595.422)"/>
      <path id="Path_1237" data-name="Path 1237" d="M1079.553,158.524c.062-.2.127-.393.188-.59-.027.086-.06.169-.086.255Z" transform="translate(976.711 -48.789)" fill="#2f2e41"/>
      <path id="Path_1238" data-name="Path 1238" d="M1045.963,1319.811l158.782-236.125-158.457,261.528.331,26.57q-17.388.133-34.437-.579l7.875-341.54-.216-2.635.291-.509.754-32.274L847,741.785l173.68,228.307.616,6.822,5.948-258.047L877.054,457.122l150.618,216.413L1026.1,138.928l0-1.779.051,1.75,9.97,421.342L1173,389.092,1036.573,596.539l2.987,230.817,125.958-225.269-125.495,259.2,1.663,128.346,183.177-313.8-182.62,358.571Z" transform="translate(710.73 -72.562)"/>
      <path id="Path_1239" data-name="Path 1239" d="M255.747,1113.925,363.794,953.249,255.968,1131.211l.226,18.08q-11.832.09-23.434-.394l5.359-232.408-.147-1.793.2-.347.513-21.961L120.359,720.595,238.543,875.951l.419,4.642L243.01,705,140.81,526.89,243.3,674.153l-1.07-363.785,0-1.211.035,1.191,6.784,286.711L342.2,480.6,249.358,621.759l2.033,157.064L337.1,625.534l-85.4,176.38,1.132,87.336L377.484,675.721l-124.268,244Z" transform="translate(-120.359 124.171)"/>
    </g>
  </g>
</svg>
