<svg xmlns="http://www.w3.org/2000/svg" xmlns:xlink="http://www.w3.org/1999/xlink" width="1145.775" height="1127.211" viewBox="0 0 1145.775 1127.211">
  <defs>
    <linearGradient id="linear-gradient" x1="0.5" x2="0.5" y2="1" gradientUnits="objectBoundingBox">
      <stop offset="0" stop-color="#3d2c8d"/>
      <stop offset="1" stop-color="#763abe"/>
    </linearGradient>
    <filter id="Rectangle_43" x="30.144" y="0" width="1115.631" height="1127.211" filterUnits="userSpaceOnUse">
      <feOffset dy="10" input="SourceAlpha"/>
      <feGaussianBlur stdDeviation="10" result="blur"/>
      <feFlood flood-opacity="0.557"/>
      <feComposite operator="in" in2="blur"/>
      <feComposite in="SourceGraphic"/>
    </filter>
    <filter id="Path_98" x="426.864" y="99.766" width="533.241" height="838.963" filterUnits="userSpaceOnUse">
      <feOffset dy="3" input="SourceAlpha"/>
      <feGaussianBlur stdDeviation="5" result="blur-2"/>
      <feFlood flood-opacity="0.161"/>
      <feComposite operator="in" in2="blur-2"/>
      <feComposite in="SourceGraphic"/>
    </filter>
    <filter id="Path_123" x="0" y="295.485" width="416.678" height="546.379" filterUnits="userSpaceOnUse">
      <feOffset dy="20" input="SourceAlpha"/>
      <feGaussianBlur stdDeviation="10" result="blur-3"/>
      <feFlood flood-opacity="0.161"/>
      <feComposite operator="in" in2="blur-3"/>
      <feComposite in="SourceGraphic"/>
    </filter>
  </defs>
  <g id="Group_5" data-name="Group 5" transform="translate(15.775 16.197)">
    <g transform="matrix(1, 0, 0, 1, -15.78, -16.2)" filter="url(#Rectangle_43)">
      <rect id="Rectangle_43-2" data-name="Rectangle 43" width="789.768" height="722.581" rx="152" transform="matrix(0.62, -0.79, 0.79, 0.62, 60.14, 642.35)" fill="url(#linear-gradient)"/>
    </g>
    <g id="Social_Media_Mgmt_illustration" data-name="Social Media Mgmt illustration" transform="translate(0 0)">
      <path id="Path_96" data-name="Path 96" d="M286.446,786.777c0,28.483-16.932,38.428-37.82,38.428q-.726,0-1.449-.016c-.968-.021-1.927-.067-2.874-.132-18.851-1.334-33.5-11.791-33.5-38.28,0-27.414,35.032-62.006,37.663-64.565l0,0c.1-.1.152-.147.152-.147S286.446,758.293,286.446,786.777Z" transform="translate(-167.938 75.092)" fill="#6c63ff"/>
      <path id="Path_97" data-name="Path 97" d="M242.762,820.848l13.833-19.328-13.867,21.45-.037,2.219c-.968-.021-1.927-.067-2.874-.131l1.491-28.5-.011-.221.025-.042.141-2.691-13.9-21.5,13.945,19.485.032.571,1.127-21.531-11.9-22.22,12.047,18.441,1.173-44.638,0-.152v.147l-.2,35.2,11.849-13.955-11.9,16.987-.313,19.278,11.063-18.5-11.109,21.337-.175,10.717,16.061-25.75L243.15,797.01Z" transform="translate(-163.453 75.092)"/>
      <g transform="matrix(1, 0, 0, 1, -15.78, -16.2)" filter="url(#Path_98)">
        <path id="Path_98-2" data-name="Path 98" d="M1016.346,573.015c0,223.339-101.4,399.528-226.283,404.392-162.85,6.343-375.687-156.034-226.281-404.392C678.91,381.636,665.091,168.623,790.063,168.623S1016.346,349.676,1016.346,573.015Z" transform="translate(-71.24 -56.86)" fill="#f2f2f2"/>
      </g>
      <rect id="Rectangle_23" data-name="Rectangle 23" width="322.643" height="280.19" transform="translate(475.315 618.692)"/>
      <line id="Line_1" data-name="Line 1" x2="1072.488" transform="translate(0 898.882)" fill="none" stroke="#3f3d56" stroke-miterlimit="10" stroke-width="2"/>
      <path id="Path_99" data-name="Path 99" d="M742.23,93.235a30.892,30.892,0,0,0-12.4,59.185,27.37,27.37,0,0,1,.538-7.088c.593-2.51,3.971-16.837,3.971-16.837a11.8,11.8,0,0,1-.993-4.882c0-4.578,2.648-8,5.957-8,2.813,0,4.165,2.11,4.165,4.633,0,2.827-1.807,7.047-2.73,10.963a4.775,4.775,0,0,0,4.881,5.943c5.847,0,9.791-7.515,9.791-16.424,0-6.771-4.564-11.831-12.852-11.831a14.636,14.636,0,0,0-15.21,14.8,8.9,8.9,0,0,0,2.041,6.054,1.509,1.509,0,0,1,.44,1.724c-.151.565-.482,1.931-.634,2.482a1.061,1.061,0,0,1-1.544.772c-4.316-1.765-6.33-6.481-6.33-11.8,0-8.77,7.4-19.292,22.077-19.292,11.79,0,19.554,8.536,19.554,17.692,0,12.121-6.743,21.167-16.672,21.167-3.337,0-6.467-1.807-7.542-3.847,0,0-1.793,7.116-2.179,8.494a25.693,25.693,0,0,1-3.1,6.619,30.894,30.894,0,1,0,8.771-60.523Z" transform="translate(-33.953 -93.235)"/>
      <path id="Path_100" data-name="Path 100" d="M990.008,270.783a27,27,0,0,1-7.667,2.11,13.4,13.4,0,0,0,5.874-7.391,26.536,26.536,0,0,1-8.48,3.24,13.347,13.347,0,0,0-23.1,9.129,13.067,13.067,0,0,0,.345,3.047,37.837,37.837,0,0,1-27.524-13.969,13.378,13.378,0,0,0,4.15,17.844,13.042,13.042,0,0,1-6.067-1.669v.166a13.364,13.364,0,0,0,10.718,13.1,13.453,13.453,0,0,1-3.52.468,12.618,12.618,0,0,1-2.51-.248,13.372,13.372,0,0,0,12.48,9.28,26.769,26.769,0,0,1-16.59,5.723,27.091,27.091,0,0,1-3.186-.193,37.32,37.32,0,0,0,20.437,6.04c24.587,0,38.019-20.367,38.019-38.032,0-.579-.014-1.158-.041-1.724A27.188,27.188,0,0,0,990.008,270.783Z" transform="translate(23.224 -47.388)" fill="#050414"/>
      <path id="Path_101" data-name="Path 101" d="M581.477,124.252H534.371a2.925,2.925,0,0,0-2.923,2.923v47.105a2.924,2.924,0,0,0,2.923,2.923h23.553v-20.96h-6.33v-7.722h6.33v-5.709c0-6.84,4.744-10.563,10.853-10.563,2.923,0,6.067.221,6.8.317v7.143h-4.868c-3.324,0-3.958,1.572-3.958,3.889v4.923h7.916l-1.035,7.722h-6.881V177.2h14.728a2.924,2.924,0,0,0,2.923-2.923V127.175A2.925,2.925,0,0,0,581.477,124.252Z" transform="translate(-50.408 -17.932)"/>
      <path id="Path_102" data-name="Path 102" d="M583.518,279.86a11.064,11.064,0,0,1,11.032,11.031v22.064a11.064,11.064,0,0,1-11.031,11.032H561.454a11.064,11.064,0,0,1-11.031-11.032V290.891a11.063,11.063,0,0,1,11.031-11.031h22.064m0-4.413H561.454a15.491,15.491,0,0,0-15.444,15.444v22.064A15.49,15.49,0,0,0,561.454,328.4h22.064a15.49,15.49,0,0,0,15.444-15.444V290.891A15.49,15.49,0,0,0,583.518,275.447Z" transform="translate(-78.209 -44.46)"/>
      <path id="Path_103" data-name="Path 103" d="M584.032,289.028a3.3,3.3,0,1,1,2.343-.967A3.309,3.309,0,0,1,584.032,289.028Zm-14.341,2.207a8.825,8.825,0,1,1-8.825,8.825,8.825,8.825,0,0,1,8.825-8.825m0-4.413a13.238,13.238,0,1,0,13.238,13.238A13.238,13.238,0,0,0,569.69,286.821Z" transform="translate(-75.413 -42.596)"/>
      <path id="Path_104" data-name="Path 104" d="M889.858,103.749H845.677a4.319,4.319,0,0,0-4.523,4.123v44.279a4.658,4.658,0,0,0,4.522,4.537h44.169a4.421,4.421,0,0,0,4.247-4.537V107.872a4.059,4.059,0,0,0-4.233-4.123Zm-32.295,44.127h-7.584V124.3h7.584Zm-3.53-27.166h-.056a4.123,4.123,0,1,1,.056,0Zm31.247,27.166H877.7V134.982c0-3.089-1.1-5.2-3.848-5.2a4.149,4.149,0,0,0-3.889,2.8,5.127,5.127,0,0,0-.263,1.862v13.431h-7.585V124.3H869.7v3.282a7.675,7.675,0,0,1,6.84-3.833c4.978,0,8.742,3.282,8.742,10.356Z" transform="translate(0.797 -90.422)"/>
      <path id="Path_105" data-name="Path 105" d="M718.857,361.354s53.682,1.459,62.548,4.685,12.83,26.291,12.83,26.291l-41.68,13.1-31.175-1.766-23.462,1.658,13.1-34.31Z" transform="translate(-37.545 -21.464)" fill="#2f2e41"/>
      <path id="Path_106" data-name="Path 106" d="M717.379,347.458s3.532,13.641-4.307,23.3,33.7,44.077,33.7,44.077l21.912-3.766s-4.829-41.915,1.658-52.529S717.379,347.458,717.379,347.458Z" transform="translate(-33.751 -25.183)" fill="#9f616a"/>
      <path id="Path_107" data-name="Path 107" d="M717.379,347.458s3.532,13.641-4.307,23.3,33.7,44.077,33.7,44.077l21.912-3.766s-4.829-41.915,1.658-52.529S717.379,347.458,717.379,347.458Z" transform="translate(-33.751 -25.183)" opacity="0.1"/>
      <path id="Path_108" data-name="Path 108" d="M664.439,568.843l-48.348,64.115,32.995,19.264,45.411-74.3Z" transform="translate(164.919 152.271)" fill="#9f616a"/>
      <path id="Path_109" data-name="Path 109" d="M809.222,717.043s-17.8-20.687-17.011-16.074-12.668,43.735-.144,47.519,119.924,13.821,121.4,1.693-32.04-20.615-32.04-20.615S861.516,710.43,857.1,712.376,809.222,717.043,809.222,717.043Z" transform="translate(-13.777 69.267)"/>
      <path id="Path_110" data-name="Path 110" d="M645.673,618.191l38.618,65.792L713.447,667.1,674.5,613.236Z" transform="translate(172.837 164.154)" fill="#9f616a"/>
      <path id="Path_111" data-name="Path 111" d="M883.575,587.872,872.114,604.09s-54.637,75.883-48.834,82.01,29.967,29.283,42.257,24.8,55.952-82.046,55.952-82.046L910.1,583.313Z" transform="translate(-4.104 37.951)"/>
      <path id="Path_112" data-name="Path 112" d="M685.562,593.471S697.8,616.3,728.811,624.033s63.413,23.534,64.566,23.336,4.415-1.946,5.208,2.667,9.3,12.65,9.3,12.65,34.256,116.41,47.339,116.536,39.968-9.245,40.527-12.9S855.69,643.782,855.293,641.476L850.536,613.8s53.719,8.577,58.728,10.091S958.836,649.8,958.836,649.8s45.429-32.743,2.938-65.809S846.247,526.67,846.247,526.67l-26.2-7.371-22.836-1.363-3.362-12.893-54.082,3.12-56.439,23.949Z" transform="translate(-41.451 17)"/>
      <circle id="Ellipse_52" data-name="Ellipse 52" cx="42.127" cy="42.127" r="42.127" transform="translate(673.361 265.173)" fill="#9f616a"/>
      <path id="Path_113" data-name="Path 113" d="M716.815,362.54l5.067-.871s9.151,35.235,37.46,41.055c0,0,13.969-16.734,13.373-19.557s11.063-17.888,17.262-9.455S788.464,530.7,793.672,533.37s16.38,5.5,7.388,15.353-44.708,23.12-52.619,18.543-24.074-43.356-31.066-56.4-18.183-57.43-18.183-57.43-14.29-48.6-5.5-59.611S716.815,362.54,716.815,362.54Z" transform="translate(-39.44 -21.379)" fill="#d0cde1"/>
      <path id="Path_114" data-name="Path 114" d="M764.7,546.512a240.415,240.415,0,0,1-4.825,30.764c-2.066,8.25-4.472,13.231-7.217,13.019-7-.524-10.189,9.75-11.83,21.594-1.755,12.566-1.755,26.9-2.717,31.967-1.273,6.693-9.424,11.8-25.712,10.3a114.911,114.911,0,0,1-28.33-6.948c-21.991-8-21.34-72.835-17.66-120.949,2.25-29.491,5.631-52.712,5.631-52.712s-6.679-19.925-8.816-33.581a44.67,44.67,0,0,1-.637-7.542c.326-11.929,22.1-44.166,35.265-64.246s31.146-5.349,31.146-5.349l-6.255,18.877s9.694,14.958,9.765,29.193,23.208,24.51,31.514,31.4C769.239,446.635,769.111,504.442,764.7,546.512Z" transform="translate(-47.003 -22.462)"/>
      <path id="Path_115" data-name="Path 115" d="M758.121,367.054s1.518,1.794,8.469.919c8.336-1.05,19.8,1.834,22.462,9.794,4.883,14.6,18.651,73.973,18.651,73.973s5.731,67.882,8.308,82.874,1.3,28.274,3.839,36.148-25.084-14.686-35.266-11.749-16.723-35.121-15.444-48.4,2.361-27.715-1.171-41.356,2.73-49.745,2.5-58.016S748.015,382.121,758.121,367.054Z" transform="translate(-22.135 -19.938)"/>
      <path id="Path_116" data-name="Path 116" d="M783.356,533.479s44.6,24.334,48.873,58.97-59.66-33.536-59.66-33.536Z" transform="translate(-17.562 24.612)" fill="#9f616a"/>
      <path id="Path_117" data-name="Path 117" d="M801.164,514.942s13.667,68.892,34.959,65.233-11.893-69.2-11.893-69.2Z" transform="translate(-9.907 18.588)" fill="#9f616a"/>
      <path id="Path_118" data-name="Path 118" d="M862.735,753.118s-10.9,12.56-13.6,10.65-8.92,24.092-3.315,29.066,27.192,13.136,27.427,21.408,58.133,6.631,60.205-2.037-7.263-28.436-13.821-32.057-30.812-36.959-30.812-36.959S869.817,745.964,862.735,753.118Z" transform="translate(1.437 80.748)"/>
      <path id="Path_119" data-name="Path 119" d="M805.558,606.556c-10.344-7.3-39.227-9.113-64.868-10.8-11.25-.722-21.877-1.429-30.042-2.575-7.868-1.09-14.943-8.279-21.227-18.991-9.523-16.231-17.222-40.571-23.15-64.062,2.25-29.491,5.632-52.712,5.632-52.712s-6.679-19.925-8.816-33.581a17.977,17.977,0,0,1,5.688-5.123c27.2-11.675,53.166,103.217,56.463,121.246.057.3.1.58.142.82,1.6,9.283,18.877,17.222,34.358,20.364,9.538,1.938,18.411,2.066,22.5-.453,10.741-6.594,43.769,19.8,46.274,20.547S820.417,617.071,805.558,606.556Z" transform="translate(-46.869 -6.331)" opacity="0.1"/>
      <path id="Path_120" data-name="Path 120" d="M670.383,413.137S650.615,422.471,659.3,466.1s26.185,117.8,52.944,121.509,80.045,2.865,94.912,13.371,25.462-24.562,22.958-25.318-35.536-27.139-46.276-20.543S729.561,550.2,726.984,535.2,698.025,401.261,670.383,413.137Z" transform="translate(-48.472 -7.825)"/>
      <path id="Path_121" data-name="Path 121" d="M779.946,396.457l21.726,50.412s2.187-1.091,4.729,6.784,3.73,14.794,8.181,19.966,24.255,78.946,24.851,82.406-27.354,15.388-33.6,5.774S779.946,396.457,779.946,396.457Z" transform="translate(-15.587 -12.067)"/>
      <path id="Path_122" data-name="Path 122" d="M728.143,347.007c1.614-.431,1.852-2.574,1.905-4.245.29-8.944,5.676-18.122,14.237-20.725a23.938,23.938,0,0,1,10.089-.555,38.223,38.223,0,0,1,13.664,4.558c2.229,1.254,4.417,2.763,6.946,3.146,1.67.253,8.9,2.356,10.566,2.652,3.657.651,7.056,3.922,10.565,2.705,3.356-1.165,4.1-5.512,4.181-9.064.185-8.094-5.959-19.3-11.372-25.317-4.106-4.569-10.29-6.678-16.335-7.775a108.766,108.766,0,0,0-21.364-1.3c-9.674.173-19.616.919-28.339,5.1s-16.05,12.516-16.468,22.183c-.087,2.014.121,4.036-.049,6.044-.413,4.9-3.015,9.325-4.235,14.088a25.779,25.779,0,0,0,3.6,20.6c3.238,4.764,8.326,9.073,8.139,14.831l7.02-7.273a5.764,5.764,0,0,0,1.715-7.043l-2.485-9.692a8.739,8.739,0,0,1-.215-5.393C722.571,337.956,725.451,347.726,728.143,347.007Z" transform="translate(-36.622 -40.293)"/>
      <g transform="matrix(1, 0, 0, 1, -15.78, -16.2)" filter="url(#Path_123)">
        <path id="Path_123-2" data-name="Path 123" d="M544.889,626.61c0,134.31-79.845,181.206-178.339,181.206S188.211,760.92,188.211,626.61,366.55,321.437,366.55,321.437,544.889,492.3,544.889,626.61Z" transform="translate(-158.21 -15.95)" fill="#f2f2f2"/>
      </g>
      <path id="Path_124" data-name="Path 124" d="M161.912,694.034l1.827-112.4,76.012-139.061L164.026,564l.82-50.543,52.388-100.609-52.17,87.235h0l1.477-90.9,56.1-80.1-55.866,65.8L167.7,228.2l-5.8,220.656.475-9.1-57.034-87.3,56.12,104.776-5.314,101.523-.158-2.7L90.235,464.185l65.552,101.391-.664,12.7-.119.19.054,1.042L141.575,837.076h18.014l2.161-133.041,65.391-101.142Z" transform="translate(24.155 61.086)"/>
    </g>
  </g>
</svg>
