<svg xmlns="http://www.w3.org/2000/svg" xmlns:xlink="http://www.w3.org/1999/xlink" width="1241.161" height="1127.211" viewBox="0 0 1241.161 1127.211">
  <defs>
    <linearGradient id="linear-gradient" x1="0.5" x2="0.5" y2="1" gradientUnits="objectBoundingBox">
      <stop offset="0" stop-color="#3d2c8d"/>
      <stop offset="1" stop-color="#763abe"/>
    </linearGradient>
    <filter id="Rectangle_43" x="84.95" y="0" width="1115.631" height="1127.211" filterUnits="userSpaceOnUse">
      <feOffset dy="10" input="SourceAlpha"/>
      <feGaussianBlur stdDeviation="10" result="blur"/>
      <feFlood flood-opacity="0.557"/>
      <feComposite operator="in" in2="blur"/>
      <feComposite in="SourceGraphic"/>
    </filter>
    <filter id="Path_91" x="545.47" y="873.847" width="109.523" height="103.921" filterUnits="userSpaceOnUse">
      <feOffset dy="13" input="SourceAlpha"/>
      <feGaussianBlur stdDeviation="8.5" result="blur-2"/>
      <feFlood flood-opacity="0.161"/>
      <feComposite operator="in" in2="blur-2"/>
      <feComposite in="SourceGraphic"/>
    </filter>
    <filter id="Path_93" x="381.819" y="845.618" width="108.275" height="188.243" filterUnits="userSpaceOnUse">
      <feOffset dy="13" input="SourceAlpha"/>
      <feGaussianBlur stdDeviation="8.5" result="blur-3"/>
      <feFlood flood-opacity="0.161"/>
      <feComposite operator="in" in2="blur-3"/>
      <feComposite in="SourceGraphic"/>
    </filter>
  </defs>
  <g id="Group_1314" data-name="Group 1314" transform="translate(-339.419 7.211)">
    <g transform="matrix(1, 0, 0, 1, 339.42, -7.21)" filter="url(#Rectangle_43)">
      <rect id="Rectangle_43-2" data-name="Rectangle 43" width="789.768" height="722.581" rx="152" transform="matrix(0.62, -0.79, 0.79, 0.62, 114.95, 642.35)" fill="url(#linear-gradient)"/>
    </g>
    <g id="Branding_illustration" data-name="Branding illustration" transform="translate(339.418 21.291)">
      <g id="Group_1303" data-name="Group 1303" transform="translate(0.001 70.557)">
        <path id="Path_63" data-name="Path 63" d="M417.616,509.966s2.6,52.091-108.522,116.337c0,0-.132.284,813.488,0,0,0-92.9-65.982-98.973-139.777" transform="translate(-98.113 13.054)" opacity="0.2"/>
        <path id="Path_64" data-name="Path 64" d="M1021.166,617.494V179.769a24.423,24.423,0,0,0,18.3-23.642h0a24.414,24.414,0,0,0-24.414-24.414H429.119a24.414,24.414,0,0,0-24.414,24.414h0a24.414,24.414,0,0,0,24.414,24.414h.006l-13.565,437.34L306.65,757.271s-.915,0,813.488,0C1120.138,757.271,1119.566,758.682,1021.166,617.494Z" transform="translate(-99.109 -131.714)" fill="#e6e6e6"/>
        <ellipse id="Ellipse_44" data-name="Ellipse 44" cx="179.389" cy="13.799" rx="179.389" ry="13.799" transform="translate(465.623 548.781)" opacity="0.2"/>
        <path id="Path_65" data-name="Path 65" d="M234.38,34.987,826.427,52.229l.257-18.3Z" transform="translate(95.629 13.842)" opacity="0.2"/>
        <path id="Path_66" data-name="Path 66" d="M766.768,307.179V361a1.881,1.881,0,0,1-1.876,1.876h-1.336V643.224a29.253,29.253,0,0,1-29.25,29.252H559.128a29.245,29.245,0,0,1-29.244-29.249V372.705h-.967a1.325,1.325,0,0,1-1.328-1.319V340.757a1.328,1.328,0,0,1,1.328-1.327h.967V327.893h-.976a1.389,1.389,0,0,1-1.384-1.393V296.289a1.387,1.387,0,0,1,1.384-1.385h.976V279.156h-.992a1.227,1.227,0,0,1-1.228-1.229V261.441a1.233,1.233,0,0,1,1.228-1.237h.992V226.822a29.245,29.245,0,0,1,29.243-29.244H734.3a29.252,29.252,0,0,1,29.251,29.244V305.3h1.336A1.881,1.881,0,0,1,766.768,307.179Z" transform="translate(-8.99 -104.84)"/>
        <rect id="Rectangle_18" data-name="Rectangle 18" width="32.631" height="6.626" rx="1.479" transform="translate(615.619 107.738)" fill="#e6e8ec"/>
        <circle id="Ellipse_45" data-name="Ellipse 45" cx="3.758" cy="3.758" r="3.758" transform="translate(653.183 107.293)" fill="#e6e8ec"/>
        <path id="Path_67" data-name="Path 67" d="M744.559,227.834V640.877A18.559,18.559,0,0,1,726,659.427H558.313a18.526,18.526,0,0,1-18.559-18.551V227.834a18.558,18.558,0,0,1,18.56-18.559h25.1v3.22a15.281,15.281,0,0,0,15.281,15.281h85.282A15.282,15.282,0,0,0,699.255,212.5v-3.221H726A18.553,18.553,0,0,1,744.559,227.834Z" transform="translate(-4 -100.068)" fill="#fff"/>
        <rect id="Rectangle_19" data-name="Rectangle 19" width="170.431" height="22.123" transform="translate(553.283 381.127)" fill="#e6e6e6"/>
        <rect id="Rectangle_20" data-name="Rectangle 20" width="170.431" height="22.123" transform="translate(553.283 420.457)" fill="#e6e6e6"/>
        <rect id="Rectangle_21" data-name="Rectangle 21" width="170.431" height="22.123" transform="translate(553.283 459.787)" fill="#e6e6e6"/>
        <rect id="Rectangle_22" data-name="Rectangle 22" width="170.431" height="113.075" transform="translate(552.941 222.167)" fill="#e6e6e6"/>
        <path id="Path_68" data-name="Path 68" d="M434.553,177.9l-87.4.543S203.293,254.987,304.266,413.5c0,0,41.258-9.772,86.858,23.886C391.124,437.389,417.724,183.872,434.553,177.9Z" transform="translate(-114.746 -112.869)" fill="#6c63ff"/>
        <path id="Path_69" data-name="Path 69" d="M402.353,178.511c-15.658,65.407-33.359,234.105-33.359,234.105-40.741-30.07-77.988-25.478-85.47-24.157a289.323,289.323,0,0,0,14.543,25.493s41.257-9.772,86.857,23.886c0,0,26.6-253.517,43.429-259.488Z" transform="translate(-108.546 -112.686)" opacity="0.2"/>
        <path id="Path_70" data-name="Path 70" d="M164.734,111.327l-7.6,36.915L61.623,130.881l-.032-.011L59.419,87.441H77.877Z" transform="translate(24.243 35.677)"/>
        <path id="Path_71" data-name="Path 71" d="M76.335,87.441l-14.712,43.44-.032-.011L59.419,87.441Z" transform="translate(24.243 35.677)" opacity="0.2"/>
        <ellipse id="Ellipse_46" data-name="Ellipse 46" cx="10.857" cy="24.972" rx="10.857" ry="24.972" transform="translate(174.863 138.318)"/>
        <path id="Path_72" data-name="Path 72" d="M252.017,776.371a3.319,3.319,0,0,1-3.319-3.319v-524.4a3.319,3.319,0,1,1,6.637,0v524.4a3.317,3.317,0,0,1-3.319,3.318Z" transform="translate(-122.755 -85.357)"/>
        <path id="Path_73" data-name="Path 73" d="M297.614,757.695a3.319,3.319,0,0,1-3.253-2.683l-45.6-233.769a3.319,3.319,0,0,1,6.033-2.455L375.308,702.613a3.319,3.319,0,0,1-5.551,3.64L258.511,536.567l42.364,217.174a3.319,3.319,0,0,1-2.622,3.894A3.456,3.456,0,0,1,297.614,757.695Z" transform="translate(-122.755 25.605)"/>
        <path id="Path_74" data-name="Path 74" d="M162.565,716.339a3.318,3.318,0,0,1-2.772-5.137L285.737,519.029a3.319,3.319,0,0,1,5.551,3.639L165.344,714.838a3.32,3.32,0,0,1-2.779,1.5Z" transform="translate(-159.25 25.703)"/>
        <path id="Path_75" data-name="Path 75" d="M813.616,177.9l87.4.543S1044.875,254.987,943.9,413.5c0,0-41.257-9.772-86.857,23.886C857.046,437.389,830.445,183.872,813.616,177.9Z" transform="translate(107.739 -112.869)" fill="#6c63ff"/>
        <path id="Path_76" data-name="Path 76" d="M839.615,178.511c15.658,65.407,33.359,234.105,33.359,234.105,40.741-30.07,77.989-25.478,85.471-24.157A289.448,289.448,0,0,1,943.9,413.952s-41.257-9.772-86.857,23.886c0,0-26.6-253.517-43.429-259.488Z" transform="translate(107.739 -112.686)" opacity="0.2"/>
        <path id="Path_77" data-name="Path 77" d="M747.284,111.327l7.6,36.915L850.4,130.881l.032-.011L852.6,87.441H834.142Z" transform="translate(304.901 35.677)" fill="#010008"/>
        <path id="Path_78" data-name="Path 78" d="M810.067,87.441l14.711,43.44.033-.011,2.171-43.429Z" transform="translate(330.516 35.677)" opacity="0.2"/>
        <ellipse id="Ellipse_47" data-name="Ellipse 47" cx="10.857" cy="24.972" rx="10.857" ry="24.972" transform="translate(1044.585 138.318)"/>
        <path id="Path_79" data-name="Path 79" d="M949.907,776.371a3.319,3.319,0,0,1-3.319-3.319v-524.4a3.319,3.319,0,0,1,6.638,0v524.4a3.32,3.32,0,0,1-3.32,3.318Z" transform="translate(161.993 -85.357)"/>
        <path id="Path_80" data-name="Path 80" d="M939.234,757.695a3.318,3.318,0,0,1-3.262-3.953l42.362-217.176L867.089,706.253a3.319,3.319,0,1,1-5.55-3.64L982.054,518.786a3.32,3.32,0,0,1,6.034,2.457l-45.6,233.767A3.322,3.322,0,0,1,939.234,757.695Z" transform="translate(127.07 25.605)"/>
        <path id="Path_81" data-name="Path 81" d="M1075.852,716.339a3.315,3.315,0,0,1-2.777-1.5L947.131,522.667a3.318,3.318,0,0,1,5.55-3.639L1078.626,711.2a3.318,3.318,0,0,1-2.774,5.137Z" transform="translate(161.993 25.703)"/>
        <path id="Path_82" data-name="Path 82" d="M551.783,470.715l23.777-6.62s9.314-1.859,3.622-20.048-16.977-13.1-16.977-13.1l-21.093,6.128-8.328,2.572L544.5,456.087l.982,10.957Z" transform="translate(-6.844 -9.89)" fill="#03020f"/>
        <path id="Path_83" data-name="Path 83" d="M356.558,294.217l-7.46,29.8,38.223,37.045,3.286.824,8.767-2.463,7.461-29.8-7.557-7.947L407,319.654l-16.484-16-8.6,1.805-6.9-6.85,4.656-1.862.439-1.753-5.641-4.439Z" transform="translate(142.435 118.549)"/>
        <path id="Path_84" data-name="Path 84" d="M387.863,329.327l-4.937,19.719-22.782-21.537,5.706-19.993Z" transform="translate(146.942 125.47)" fill="#6c63ff"/>
        <path id="Path_85" data-name="Path 85" d="M354.7,294.217l-1.046,4.178,38.01,36.976,3.286.823,8.493-2.3.467-.01,1.068-4.262-7.557-7.947,7.724-2.023-16.484-16-8.6,1.805-6.9-6.85,4.656-1.862.439-1.753-5.641-4.439Z" transform="translate(144.294 118.549)" fill="none" stroke="#3f3d56" stroke-miterlimit="10" stroke-width="1"/>
        <ellipse id="Ellipse_48" data-name="Ellipse 48" cx="2.146" cy="3.162" rx="2.146" ry="3.162" transform="translate(512.965 413.701) rotate(-75.943)" fill="#6c63ff"/>
        <ellipse id="Ellipse_49" data-name="Ellipse 49" cx="2.146" cy="3.162" rx="2.146" ry="3.162" transform="translate(537.113 445.592) rotate(-75.943)" fill="#6c63ff"/>
        <path id="Path_86" data-name="Path 86" d="M564.409,500.751l-5.186-17.63s13.482-32.148-2.074-35.259-16.593,30.075-16.593,30.075l6.223,19.7Z" transform="translate(-3.673 -2.805)" fill="#ffb6b6"/>
        <circle id="Ellipse_50" data-name="Ellipse 50" cx="41.195" cy="41.195" r="41.195" transform="translate(423.269 381.277)" fill="#ffb6b6"/>
        <path id="Path_87" data-name="Path 87" d="M515.091,454.521s2.423,30.29,8.481,32.713-65.428,19.386-65.428,19.386l18.175-20.6s3.634-31.5-4.847-38.772Z" transform="translate(-37.298 -2.97)" fill="#ffb6b6"/>
        <path id="Path_88" data-name="Path 88" d="M539.82,479.338l16.594-2.074s19.7,10.37,19.7,23.852,11.407,35.26,11.407,35.26,8.3,29.038-10.37,31.112-35.261-31.112-35.261-31.112Z" transform="translate(-3.973 9.275)" fill="#6c63ff"/>
        <path id="Path_89" data-name="Path 89" d="M587.387,605.189s36.3-34.222,46.668-32.148,31.111,5.186,31.111,20.74-34.223,51.854-34.223,51.854-25.927,57.038-50.816,59.111a429.642,429.642,0,0,0-48.742,7.26s11.407,41.483,5.185,52.889-30.075,24.89-32.149,23.852-31.112-28-43.556-66.371-20.741-67.409-9.334-69.482S587.387,605.189,587.387,605.189Z" transform="translate(-42.206 48.316)"/>
        <path id="Path_90" data-name="Path 90" d="M615,585.539s7.259-1.038,6.222,16.593-4.148,80.891-9.334,93.335-6.222,26.964-4.148,32.149,6.222,13.482-1.037,14.52-37.334-3.112-40.446-4.15-6.221-18.666-4.148-18.666,7.26-1.037,5.186-8.3-3.112-7.26,0-9.334,11.407-5.185,9.333-7.259-4.147-50.816-4.147-50.816Z" transform="translate(4.847 53.448)"/>
        <g transform="matrix(1, 0, 0, 1, 0, -99.06)" filter="url(#Path_91)">
          <path id="Path_91-2" data-name="Path 91" d="M603.273,696.047s17.63-5.186,19.7,6.223c0,0,3.112,17.63-10.37,23.851a166.626,166.626,0,0,0-24.888,14.52s-21.779,8.3-22.816-2.074,4.148-47.705,4.148-47.705Z" transform="translate(6.2 195.49)"/>
        </g>
        <path id="Path_92" data-name="Path 92" d="M520.2,711.2l-33.186-26.963s6.223,33.185-2.074,39.408l-3.79,11.079,10.612,8.681S524.349,738.159,520.2,711.2Z" transform="translate(-27.91 93.72)"/>
        <g transform="matrix(1, 0, 0, 1, 0, -99.06)" filter="url(#Path_93)">
          <path id="Path_93-2" data-name="Path 93" d="M486.841,671.04s21.778,6.222,18.667,28-7.1,45.44-7.1,45.44-1.2,58.266-16.752,62.415-19.7-4.148-19.7-4.148-17.683-45.531-12.445-59.113c6.341-16.438,15.477-34.9,12.445-40.446C458.969,697.728,464.026,667.927,486.841,671.04Z" transform="translate(-41.22 187.31)"/>
        </g>
        <path id="Path_94" data-name="Path 94" d="M482.23,468.671s8.3,1.036,21.778,3.111,22.815-8.3,30.075-6.223,67.409,16.593,67.409,16.593l-9.334,71.556s11.408,82.965,9.334,97.484,24.89,12.445,9.333,30.074-42.519,33.186-97.483,28-62.223-4.148-62.223-12.445,12.444-78.816,8.3-85.039-12.445-13.482-8.3-20.741,8.3-11.407,2.073-17.63-9.333-12.444-9.333-15.556-14.519-53.927-14.519-53.927,6.222-24.889,13.482-25.926,13.481-6.222,18.667-6.222,8.3,1.036,11.407,0Z" transform="translate(-49.051 4.387)" fill="#6c63ff"/>
        <path id="Path_95" data-name="Path 95" d="M569.938,435c-.533-2.4-3.145-10.411-8.455-12.367-3.885-1.431-11.114,1.592-14.714,1.09l-.465-1.318a29.891,29.891,0,0,0-1.925-7.57,38.736,38.736,0,0,0-21.253-21.664c-11.859-4.958-30.614-9.056-46.887,3.933-22.352,17.841-18.414,44.539-16.79,51.946q.407,1.854.7,3.73c1,6.525,3.889,7.3,3.889,7.3s-.062-.188-.163-.531l20.188,1.966,10.915-1.863c.183,1.068.254,1.7.254,1.7,31.851-4.868,50.386-21.645,53.4-24.554,2.647,1.755,7.574,4.619,12.353,5.247C567.977,442.969,570.472,437.4,569.938,435ZM487.87,451.042l-25.649-.933c-.364-7,1.444-15.188,11.754-15.606,9.94-.4,15.366,7.679,18.242,15.078Z" transform="translate(-37.311 -26.979)"/>
        <ellipse id="Ellipse_51" data-name="Ellipse 51" cx="4.537" cy="1.717" rx="4.537" ry="1.717" transform="translate(452.211 361.583) rotate(-9.685)" fill="#2f2e41"/>
      </g>
    </g>
  </g>
</svg>
