<svg id="Group_1311" data-name="Group 1311" xmlns="http://www.w3.org/2000/svg" width="1325.43" height="1029.942" viewBox="0 0 1325.43 1029.942">
  <path id="Path_1302" data-name="Path 1302" d="M489.212,64.911,278.118,179.251a53.7,53.7,0,1,1-94.394,51.129l-71.977,38.987L298.19,613.575,675.655,409.119Z" transform="translate(-101.962 -64.911)"/>
  <circle id="Ellipse_122" data-name="Ellipse 122" cx="43.578" cy="43.578" r="43.578" transform="translate(82.933 97.729)" fill="#6c63ff"/>
  <path id="Path_1303" data-name="Path 1303" d="M821,881.414l228.236-74.448a53.7,53.7,0,1,1,102.06-33.291l77.822-25.385-121.394-372.16L699.608,509.254Z" transform="translate(96.311 40.057)" fill="#f2f2f2"/>
  <circle id="Ellipse_123" data-name="Ellipse 123" cx="43.578" cy="43.578" r="43.578" transform="translate(1155.661 785.861)" fill="#6c63ff"/>
  <rect id="Rectangle_58" data-name="Rectangle 58" width="1053.776" height="478.746" transform="translate(154.456 204.173)"/>
  <rect id="Rectangle_59" data-name="Rectangle 59" width="1019.006" height="434.616" transform="translate(171.84 221.557)" fill="#fff"/>
  <rect id="Rectangle_60" data-name="Rectangle 60" width="98.959" height="33.432" transform="translate(988.249 635.445)" fill="#3f3d56"/>
  <rect id="Rectangle_61" data-name="Rectangle 61" width="72.213" height="9.361" transform="translate(910.687 660.853)" fill="#6c63ff"/>
  <path id="Path_1304" data-name="Path 1304" d="M190.5,299.134H579.648l60.333,29.392,96.129,46.833,62.852-117.681H976.82" transform="translate(64.252 86.909)" fill="none" stroke="#3f3d56" stroke-miterlimit="10" stroke-width="2"/>
  <path id="Path_1305" data-name="Path 1305" d="M304.925,288.678l28.852,68.2h70.876" transform="translate(102.845 97.365)" fill="none" stroke="#3f3d56" stroke-miterlimit="10" stroke-width="2"/>
  <path id="Path_1306" data-name="Path 1306" d="M385.807,302.169l98.548-53.491h69.538" transform="translate(130.125 83.874)" fill="none" stroke="#3f3d56" stroke-miterlimit="10" stroke-width="2"/>
  <circle id="Ellipse_124" data-name="Ellipse 124" cx="12.036" cy="12.036" r="12.036" transform="translate(395.166 374.007)" fill="#6c63ff"/>
  <circle id="Ellipse_125" data-name="Ellipse 125" cx="12.036" cy="12.036" r="12.036" transform="translate(507.497 374.007)" fill="#6c63ff"/>
  <path id="Path_1307" data-name="Path 1307" d="M526.5,310.678,534.524,429.7h69.538" transform="translate(177.577 104.785)" fill="none" stroke="#3f3d56" stroke-miterlimit="10" stroke-width="2"/>
  <path id="Path_1308" data-name="Path 1308" d="M645.926,307.91,569.5,248.678h72.213" transform="translate(192.08 83.874)" fill="none" stroke="#3f3d56" stroke-miterlimit="10" stroke-width="2"/>
  <path id="Path_1309" data-name="Path 1309" d="M721.051,257.678l74.151,58.84H864.74" transform="translate(243.195 86.909)" fill="none" stroke="#3f3d56" stroke-miterlimit="10" stroke-width="2"/>
  <circle id="Ellipse_126" data-name="Ellipse 126" cx="12.036" cy="12.036" r="12.036" transform="translate(692.042 403.427)" fill="#6c63ff"/>
  <circle id="Ellipse_127" data-name="Ellipse 127" cx="12.036" cy="12.036" r="12.036" transform="translate(951.474 332.551)" fill="#6c63ff"/>
  <circle id="Ellipse_128" data-name="Ellipse 128" cx="12.036" cy="12.036" r="12.036" transform="translate(825.77 379.356)" fill="#6c63ff"/>
  <line id="Line_2" data-name="Line 2" x2="69.538" transform="translate(437.959 464.942)" fill="none" stroke="#3f3d56" stroke-miterlimit="10" stroke-width="2"/>
  <path id="Path_1310" data-name="Path 1310" d="M615.93,322.589Z" transform="translate(68.088 21.998)" fill="none" stroke="#3f3d56" stroke-miterlimit="10" stroke-width="2"/>
  <path id="Path_1311" data-name="Path 1311" d="M727.93,321.589Z" transform="translate(105.863 21.661)" fill="none" stroke="#3f3d56" stroke-miterlimit="10" stroke-width="2"/>
  <path id="Path_1312" data-name="Path 1312" d="M727.93,329.589Z" transform="translate(105.863 24.359)" fill="none" stroke="#3f3d56" stroke-miterlimit="10" stroke-width="2"/>
  <path id="Path_1313" data-name="Path 1313" d="M932.93,374.589Z" transform="translate(175.005 39.537)" fill="none" stroke="#3f3d56" stroke-miterlimit="10" stroke-width="2"/>
  <path id="Path_1314" data-name="Path 1314" d="M913.93,382.589Z" transform="translate(168.597 42.235)" fill="none" stroke="#3f3d56" stroke-miterlimit="10" stroke-width="2"/>
  <path id="Path_1315" data-name="Path 1315" d="M688.93,472.589Z" transform="translate(92.709 72.59)" fill="none" stroke="#3f3d56" stroke-miterlimit="10" stroke-width="2"/>
  <circle id="Ellipse_129" data-name="Ellipse 129" cx="19.732" cy="19.732" r="19.732" transform="translate(1062.851 81.272)" fill="none" stroke="#3f3d56" stroke-miterlimit="10" stroke-width="2"/>
  <ellipse id="Ellipse_130" data-name="Ellipse 130" cx="203.266" cy="37.444" rx="203.266" ry="37.444" transform="translate(0 955.055)" fill="#f2f2f2"/>
  <path id="Path_1316" data-name="Path 1316" d="M265.535,493.658l-36.263,18.3,2.347,4.674,36.262-18.3Z" transform="translate(77.329 166.5)" fill="#6c63ff"/>
  <path id="Path_1317" data-name="Path 1317" d="M363.188,533.533l-1.629,9.775s2.444,67.608-15.477,46.43-5.7-49.688-5.7-49.688l4.887-8.146Z" transform="translate(-26.221 92.596)" fill="#fbbebe"/>
  <path id="Path_1318" data-name="Path 1318" d="M279.694,299.221s-3.258,34.211-4.887,35.841,24.437,32.582,24.437,32.582l22.808-21.178s-1.629-30.953,3.258-37.47S279.694,299.221,279.694,299.221Z" transform="translate(-46.99 14.117)" fill="#fbbebe"/>
  <path id="Path_1319" data-name="Path 1319" d="M279.694,299.221s-3.258,34.211-4.887,35.841,24.437,32.582,24.437,32.582l22.808-21.178s-1.629-30.953,3.258-37.47S279.694,299.221,279.694,299.221Z" transform="translate(-46.99 14.117)" opacity="0.1"/>
  <path id="Path_1320" data-name="Path 1320" d="M135.924,702.127v29.324l-11.4,1.63-16.291-4.888,4.886-30.954Z" transform="translate(36.503 235.164)" fill="#3f3d56"/>
  <path id="Path_1321" data-name="Path 1321" d="M235.112,779.681s-4.887-13.033-13.033-11.4-9.775,11.4-9.775,11.4-6.516,24.437-16.291,32.582-19.549,29.324,0,32.582,35.841-4.887,35.841-6.516,4.887-11.4,13.033-13.033,14.662-3.258,14.662-9.775-4.887-13.033-4.887-13.033-1.629-30.9-4.887-26.855a32.409,32.409,0,0,0-4.887,10.564Z" transform="translate(-77.348 172.272)"/>
  <path id="Path_1322" data-name="Path 1322" d="M182.967,690.341l-6.517,24.436,16.291,3.259,8.145-8.145,1.629-21.179Z" transform="translate(59.513 232.288)" fill="#3f3d56"/>
  <path id="Path_1323" data-name="Path 1323" d="M288.232,774.787s6.516-4.887,9.775-4.887h4.887s0-11.4,8.146-11.4,6.516,8.146,6.516,8.146,17.92,27.7,22.808,32.582,30.953,19.549,9.775,26.066-35.841,6.516-45.615-4.887c0,0-9.775-4.887-16.291-4.887s-14.662-3.258-14.662-8.146,4.887-14.662,4.887-14.662,3.258-29.324,4.887-26.066S288.232,774.787,288.232,774.787Z" transform="translate(-47.383 169.02)"/>
  <path id="Path_1324" data-name="Path 1324" d="M241.248,474.647v53.761s-17.92,104.264-17.92,138.475-27.7,197.123-14.662,200.382,43.986,8.146,45.615,3.258,13.033-159.654,14.662-161.283,35.841-130.329,35.841-130.329l6.517,1.629,3.258,146.621s-16.291,131.959-8.146,131.959,42.357-1.629,42.357-11.4,17.92-190.607,17.92-190.607,21.178-143.362,13.033-158.024-8.146-22.808-8.146-22.808Z" transform="translate(-70.45 73.284)"/>
  <circle id="Ellipse_131" data-name="Ellipse 131" cx="32.582" cy="32.582" r="32.582" transform="translate(227.002 273.425)" fill="#fbbebe"/>
  <path id="Path_1325" data-name="Path 1325" d="M321,341.726s-20.364-17.106-21.993-23.622c0,0-10.589,10.589-10.589,12.218S242.8,336.839,231.4,349.872,210.222,390.6,210.222,390.6l27.7,52.132s1.629,29.324,1.629,32.582-8.146,55.39-4.887,57.019S270.5,550.254,298.195,547s55.39-8.146,63.536-8.146,14.662,3.258,14.662,0-4.887-9.775-4.887-13.033-1.629-11.4-1.629-16.291-3.258-13.033-3.258-19.549,35.841-94.489,35.841-94.489-1.629-27.7-27.7-40.728-29.324-17.92-29.324-17.92-.508-9.775-1.883-9.775-6.262,14.662-19.3,16.291Z" transform="translate(-68.749 20.486)" fill="#d0cde1"/>
  <path id="Path_1326" data-name="Path 1326" d="M122.847,436.17l11.4,17.92,29.324-6.517L142.4,423.137Z" transform="translate(41.434 142.715)" fill="#fbbebe"/>
  <path id="Path_1327" data-name="Path 1327" d="M355.7,366.224l9.775,13.033s19.549,94.489,16.291,128.7-6.516,60.277-6.516,60.277,6.516,24.437,1.629,24.437-34.211,1.629-34.211-3.258,3.258-35.841,3.258-35.841l-8.146-71.681-17.92-24.437Z" transform="translate(-31.769 36.715)" fill="#d0cde1"/>
  <path id="Path_1328" data-name="Path 1328" d="M288.694,294.23c2-.846,4.306-.16,6.445-.521,2.512-.424,4.759-2.285,7.3-2.05a14.021,14.021,0,0,1,3.473,1.128,4.534,4.534,0,0,0,3.558.127,2.022,2.022,0,0,0,.774-3.037,10.057,10.057,0,0,0,5.787-2.491,4.32,4.32,0,0,1,1.1-.829,3.6,3.6,0,0,1,2.838.442l3.728,1.718a4.715,4.715,0,0,1,2.13,1.524c.443.691.53,1.621,1.158,2.15.8.675,2,.345,3.045.411a3.9,3.9,0,0,1,3.517,3.8c-.015,1.094-.413,2.436.453,3.106.5.388,1.214.326,1.8.565,1.524.619,1.53,2.74,1.3,4.369s-.114,3.778,1.452,4.28c1.1.353,2.23-.4,3.376-.568,1.728-.253,3.328.828,4.866,1.655s3.583,1.385,4.916.257c1.241-1.05,1.161-2.971.82-4.56a25.126,25.126,0,0,0-2.39-6.535,4.148,4.148,0,0,1-.693-2.034,3.683,3.683,0,0,1,1.709-2.487c1.885-1.49,4.054-2.991,4.664-5.315.448-1.706-.056-3.505-.017-5.269.047-2.146.9-4.282.5-6.391-.725-3.822-4.979-5.662-7.725-8.417-3.773-3.787-5-9.844-9.451-12.8-3.562-2.366-8.222-2.084-12.279-3.438-4.456-1.487-8.044-4.9-12.439-6.561a17.335,17.335,0,0,0-14.735,1.292,14.749,14.749,0,0,1-4.332,2.213,15.577,15.577,0,0,1-3.943-.046,15.221,15.221,0,0,0-7.52,1.552,4.2,4.2,0,0,0-2.107,1.848c-.787,1.748.356,4.481-1.369,5.316-.8.39-1.754.016-2.647.036-1.738.038-3.074,1.55-3.9,3.079a14.753,14.753,0,0,1-2.734,4.4c-2.124,1.86-5.983,2.168-6.538,4.936a26.91,26.91,0,0,0,.2,3.507c-.16,2.453-2.786,4.318-2.649,6.772.158,2.831,3.755,4.215,4.717,6.882.732,2.031-.231,4.228-.894,6.283s-.863,4.689.849,6c.671.516,1.535.727,2.219,1.225,1.772,1.289,1.749,3.889,1.553,6.071a2.856,2.856,0,0,0,.644,2.6,2.406,2.406,0,0,0,1.969.236,8.037,8.037,0,0,0,5.087-3.828c.571-.943.685-1.775,1.722-2.275.7-.34,1.557-.036,2.273-.477C285.686,301.984,284.513,296,288.694,294.23Z" transform="translate(-51.239 -4.041)"/>
  <path id="Path_1329" data-name="Path 1329" d="M220.543,368.661l-4.887,4.887s-29.324,87.972-19.549,107.522,29.324,68.423,35.841,66.794,29.324-16.291,29.324-17.92-27.7-47.244-27.7-47.244-3.258-9.775-1.629-11.4,1.629,0,0-3.258-1.629,0,1.629-3.258,3.258-3.258,3.258-4.887,9.775-42.357,9.775-42.357Z" transform="translate(-74.182 37.537)" fill="#d0cde1"/>
  <path id="Path_1330" data-name="Path 1330" d="M128.329,449.768l35.842-11.4,4.886,11.4-39.1,8.145Z" transform="translate(43.283 147.851)" fill="#2f2e41"/>
  <path id="Path_1331" data-name="Path 1331" d="M128.329,449.768l35.842-11.4,4.886,11.4-39.1,8.145Z" transform="translate(43.283 147.851)" opacity="0.1"/>
  <path id="Path_1332" data-name="Path 1332" d="M164.876,262.939l27.7,22.807,3.259-4.888Z" transform="translate(55.609 88.684)" opacity="0.1"/>
  <path id="Path_1333" data-name="Path 1333" d="M211.226,267.812l-19.548,11.4,1.629,4.888Z" transform="translate(64.649 90.327)" opacity="0.1"/>
</svg>
