<svg xmlns="http://www.w3.org/2000/svg" xmlns:xlink="http://www.w3.org/1999/xlink" width="1464.579" height="1127.211" viewBox="0 0 1464.579 1127.211">
  <defs>
    <linearGradient id="linear-gradient" x1="0.5" x2="0.5" y2="1" gradientUnits="objectBoundingBox">
      <stop offset="0" stop-color="#3d2c8d"/>
      <stop offset="1" stop-color="#763abe"/>
    </linearGradient>
    <filter id="Rectangle_43" x="196.659" y="0" width="1115.631" height="1127.211" filterUnits="userSpaceOnUse">
      <feOffset dy="10" input="SourceAlpha"/>
      <feGaussianBlur stdDeviation="10" result="blur"/>
      <feFlood flood-opacity="0.557"/>
      <feComposite operator="in" in2="blur"/>
      <feComposite in="SourceGraphic"/>
    </filter>
  </defs>
  <g id="Component_1_1" data-name="Component 1 – 1" transform="translate(0 20)">
    <g transform="matrix(1, 0, 0, 1, 0, -20)" filter="url(#Rectangle_43)">
      <rect id="Rectangle_43-2" data-name="Rectangle 43" width="789.768" height="722.581" rx="152" transform="matrix(0.62, -0.79, 0.79, 0.62, 226.66, 642.35)" fill="url(#linear-gradient)"/>
    </g>
    <g id="digital_Marketing_illustration" data-name="digital Marketing illustration" transform="translate(0 155.756)">
      <path id="Path_765" data-name="Path 765" d="M1148.194,275.021H789.061v-7.851H626.217v7.851H265.6c-13.418,0-24.295,11.537-24.295,25.769h0V822.4c0,14.232,10.877,25.769,24.295,25.769h882.589c13.417,0,24.294-11.537,24.294-25.769V300.788c0-14.228-10.875-25.765-24.292-25.766Z" transform="translate(-4.148 -163.407)" fill="#3f3d56"/>
      <rect id="Rectangle_125" data-name="Rectangle 125" width="866.036" height="518.185" transform="translate(269.734 157.151)" fill="#e6e6e6"/>
      <rect id="Rectangle_130" data-name="Rectangle 130" width="792.876" height="447.905" transform="translate(306.462 184.555)" fill="#fff"/>
      <ellipse id="Ellipse_120" data-name="Ellipse 120" cx="8.883" cy="9.422" rx="8.883" ry="9.422" transform="translate(693.128 124.177)" fill="#6c63ff"/>
      <path id="Path_766" data-name="Path 766" d="M1207,653.566h-84.519v-6.46a1.246,1.246,0,0,0-1.208-1.281H1092.3a1.246,1.246,0,0,0-1.208,1.281h0v6.46h-18.111v-6.46a1.246,1.246,0,0,0-1.208-1.281h-28.978a1.246,1.246,0,0,0-1.208,1.281h0v6.46h-18.111v-6.46a1.246,1.246,0,0,0-1.208-1.281H993.286a1.246,1.246,0,0,0-1.208,1.281h0v6.46h-18.11v-6.46a1.246,1.246,0,0,0-1.208-1.281H943.783a1.246,1.246,0,0,0-1.208,1.281h0v6.46H924.464v-6.46a1.246,1.246,0,0,0-1.208-1.281H894.279a1.246,1.246,0,0,0-1.208,1.281h0v6.46H874.959v-6.46a1.246,1.246,0,0,0-1.208-1.281H844.78a1.246,1.246,0,0,0-1.208,1.281h0v6.46H825.455v-6.46a1.246,1.246,0,0,0-1.208-1.281H597.252a1.246,1.246,0,0,0-1.208,1.281h0v6.46H577.934v-6.46a1.246,1.246,0,0,0-1.208-1.281H547.748a1.246,1.246,0,0,0-1.208,1.281h0v6.46H528.429v-6.46a1.246,1.246,0,0,0-1.208-1.281H498.245a1.246,1.246,0,0,0-1.208,1.281h0v6.46H478.925v-6.46a1.246,1.246,0,0,0-1.208-1.281H448.74a1.246,1.246,0,0,0-1.208,1.281h0v6.46H429.425v-6.46a1.246,1.246,0,0,0-1.208-1.281H399.236a1.246,1.246,0,0,0-1.208,1.281h0v6.46H379.917v-6.46a1.246,1.246,0,0,0-1.208-1.281H349.731a1.246,1.246,0,0,0-1.208,1.281h0v6.46H330.413v-6.46a1.246,1.246,0,0,0-1.208-1.281H300.221a1.246,1.246,0,0,0-1.208,1.281h0v6.46H243.478c-16,0-28.978,13.761-28.978,30.737v13.9c0,16.976,12.974,30.737,28.978,30.737H1207c16,0,28.978-13.761,28.978-30.736V684.3c0-16.976-12.974-30.737-28.978-30.737Z" transform="translate(-14.345 12.349)" fill="#3f3d56"/>
      <rect id="Rectangle_126" data-name="Rectangle 126" width="350.616" height="390.931" transform="translate(527.592 215.97)" fill="#e6e6e6"/>
      <rect id="Rectangle_128" data-name="Rectangle 128" width="1464.579" height="1.623" transform="translate(0 741.287)" fill="#e6e6e6"/>
      <path id="Path_776" data-name="Path 776" d="M1041.509,640.079c19.844,22.586,20.87,55.784,20.87,55.784s-31.148-3.423-50.992-26.009-20.87-55.784-20.87-55.784S1021.664,617.493,1041.509,640.079Z" transform="translate(280.833 -2.39)" fill="#6c63ff"/>
      <path id="Path_777" data-name="Path 777" d="M1087.206,673.059c-21.294,21.049-52.592,22.137-52.592,22.137s3.227-33.039,24.521-54.087,52.592-22.137,52.592-22.137S1108.5,652.01,1087.206,673.059Z" transform="translate(297.606 -0.115)" fill="#6c63ff"/>
      <path id="Path_778" data-name="Path 778" d="M1097.369,718.871h-78.321a7.979,7.979,0,0,1-7.2-4.78l-17.052-37.18a8.94,8.94,0,0,1,.409-8.226,7.912,7.912,0,0,1,6.8-3.988h112.426a7.913,7.913,0,0,1,6.8,3.988,8.941,8.941,0,0,1,.409,8.226l-17.052,37.181a7.979,7.979,0,0,1-7.2,4.78Z" transform="translate(282.151 21.109)" fill="#e5e5e5"/>
      <path id="Path_779" data-name="Path 779" d="M144.508,640.079c19.844,22.586,20.87,55.784,20.87,55.784s-31.148-3.423-50.993-26.009-20.87-55.784-20.87-55.784S124.664,617.493,144.508,640.079Z" transform="translate(-60.365 -2.39)" fill="#e5e5e5"/>
      <path id="Path_780" data-name="Path 780" d="M191.369,718.871H113.048a7.979,7.979,0,0,1-7.2-4.78l-17.052-37.18a8.941,8.941,0,0,1,.409-8.226A7.912,7.912,0,0,1,96,664.7H208.423a7.912,7.912,0,0,1,6.8,3.988,8.941,8.941,0,0,1,.409,8.226l-17.052,37.181a7.979,7.979,0,0,1-7.2,4.781Z" transform="translate(-62.47 21.109)" fill="#e5e5e5"/>
      <ellipse id="Ellipse_127" data-name="Ellipse 127" cx="46.597" cy="49.426" rx="46.597" ry="49.426" transform="translate(698.607 227.784)" fill="#a0616a"/>
      <path id="Path_803" data-name="Path 803" d="M531.686,695.418l30.092-200.937c3.237-21.612,15.079-40.7,32.509-52.411a68.321,68.321,0,0,1,58.567-8.763h0c35.466,10.88,57.32,48.579,50.468,87.059L671.849,699.812Z" transform="translate(106.305 -87.712)" fill="#6c63ff"/>
      <path id="Path_804" data-name="Path 804" d="M626.894,665.939a20.438,20.438,0,0,0,8.442-14.594,21.012,21.012,0,0,0-5.129-16.235l31.107-63.895-35.031,3.965-24.169,60.069a21.284,21.284,0,0,0-.43,26.99,18.426,18.426,0,0,0,25.209,3.7Z" transform="translate(131.175 -22.281)" fill="#a0616a"/>
      <path id="Path_805" data-name="Path 805" d="M628.8,679.232a8.352,8.352,0,0,1-4.6-2.316L612.3,665.25a9.477,9.477,0,0,1-2.071-10.17l23.787-59.8L630.64,477.112c2.053-15.964,15.918-27.139,30.968-24.962S687.195,469.034,685.142,485h0l5.77,74.281a97.447,97.447,0,0,1-16.956,63.181L636.86,675.652a8.446,8.446,0,0,1-6.061,3.63,7.97,7.97,0,0,1-1.995-.05Z" transform="translate(135.927 -77.673)" fill="#6c63ff"/>
      <path id="Path_806" data-name="Path 806" d="M415.051,374.889a20.227,20.227,0,0,0,9.378,13.936,18.111,18.111,0,0,0,16.094,1.322l43.344,55.3,10.215-35.764-42.725-47.027c-4.034-9.357-14.017-14.048-23.261-10.932s-14.842,13.06-13.043,23.17Z" transform="translate(61.812 -124.608)" fill="#a0616a"/>
      <path id="Path_807" data-name="Path 807" d="M439.89,386.529a8.741,8.741,0,0,1,3.806-3.593l14.77-7.076A8.212,8.212,0,0,1,468.1,377.8l42.645,46.55,103.9,42.775c13.059,8.229,17.355,26.129,9.6,39.98s-24.634,18.408-37.693,10.179h0L519.819,493.96a89.194,89.194,0,0,1-48.241-41.2l-31.716-56.971a9.551,9.551,0,0,1-.788-7.335,9.246,9.246,0,0,1,.82-1.927Z" transform="translate(70.926 -113.328)" fill="#6c63ff"/>
      <path id="Path_808" data-name="Path 808" d="M646.89,502.685l-1.9,64.4L610.044,631.5l29.183-71.788Z" transform="translate(136.11 -54.091)" opacity="0.1" style="isolation: isolate"/>
      <path id="Path_696" data-name="Path 696" d="M592.149,383.364c4.806,6.034,12.94,7.735,20.443,8.434,15.238,1.417,37.4-.879,52.287-4.529,1.063,10.927-1.835,22.708,4.232,31.7a155.4,155.4,0,0,0,4.929-33.358c.184-4.832.112-9.845-1.742-14.287s-5.9-8.213-10.553-8.252a25.693,25.693,0,0,1,11.8-5.35L658.8,349.86l3.786-4.123L635.9,344l7.73-5.21a158.123,158.123,0,0,0-35.118-1.171c-5.439.425-11.126,1.237-15.532,4.58s-6.953,9.986-4.217,14.893a20.658,20.658,0,0,0-15.538,13.076c-1.964,5.283-1.785,11.151-1.179,16.781a125,125,0,0,0,5.88,26.384" transform="translate(121.499 -130.928)" fill="#2f2e41"/>
      <path id="Path_138" data-name="Path 138" d="M857.232,324.919,432.632,428.9a8.078,8.078,0,0,1-9.678-6.415L398.637,310.763a8.6,8.6,0,0,1,6.048-10.266l424.6-103.977a8.078,8.078,0,0,1,9.678,6.415L863.28,314.654a8.6,8.6,0,0,1-6.047,10.265Z" transform="translate(55.617 -196.301)" fill="#fff"/>
      <path id="Path_138-2" data-name="Path 138" d="M857.232,324.919,432.632,428.9a8.078,8.078,0,0,1-9.678-6.415L398.637,310.763a8.6,8.6,0,0,1,6.048-10.266l424.6-103.977a8.078,8.078,0,0,1,9.678,6.415L863.28,314.654a8.6,8.6,0,0,1-6.047,10.265ZM405.411,303.834a5.159,5.159,0,0,0-3.629,6.16L426.1,421.713a4.846,4.846,0,0,0,5.808,3.849l424.6-103.977a5.158,5.158,0,0,0,3.629-6.16l-24.317-111.72a4.846,4.846,0,0,0-5.807-3.849Z" transform="translate(55.617 -196.301)" fill="#e6e6e6"/>
      <path id="Path_139" data-name="Path 139" d="M511.394,289.093a5.829,5.829,0,0,0-4.117,6.962,5.479,5.479,0,0,0,6.564,4.367l.018,0,251.66-61.627a5.83,5.83,0,0,0,4.106-6.97,5.478,5.478,0,0,0-6.571-4.355Z" transform="translate(96.967 -181.906)" fill="#e6e6e6"/>
      <path id="Path_140" data-name="Path 140" d="M516.751,301.168a5.829,5.829,0,0,0-4.117,6.962A5.479,5.479,0,0,0,519.2,312.5l.018,0,108.29-26.518a5.829,5.829,0,0,0,4.117-6.962,5.479,5.479,0,0,0-6.564-4.367l-.019,0Z" transform="translate(99.004 -160.006)" fill="#e6e6e6"/>
      <g id="Group_45" data-name="Group 45" transform="translate(506.69 112.753)">
        <ellipse id="Ellipse_18" data-name="Ellipse 18" cx="32.872" cy="34.867" rx="32.872" ry="34.867" fill="#6c63ff"/>
        <path id="Path_395" data-name="Path 395" d="M465.087,324.715a4.825,4.825,0,0,1-3.214-.322l-.063-.03-13.227-6.369a5.581,5.581,0,0,1-2.546-7.206,5.014,5.014,0,0,1,6.793-2.7l8.571,4.139L473.426,284.2a5.009,5.009,0,0,1,6.787-2.7h0l-.072.183.076-.184a5.583,5.583,0,0,1,2.541,7.2l-14.141,32.966a5.2,5.2,0,0,1-3.523,3.039Z" transform="translate(-433.14 -269.733)" fill="#fff"/>
      </g>
    </g>
  </g>
</svg>
