<svg xmlns="http://www.w3.org/2000/svg" xmlns:xlink="http://www.w3.org/1999/xlink" width="1258.546" height="1127.211" viewBox="0 0 1258.546 1127.211">
  <defs>
    <linearGradient id="linear-gradient" x1="0.5" x2="0.5" y2="1" gradientUnits="objectBoundingBox">
      <stop offset="0" stop-color="#3d2c8d"/>
      <stop offset="1" stop-color="#763abe"/>
    </linearGradient>
    <filter id="Rectangle_43" x="85.507" y="0" width="1115.631" height="1127.211" filterUnits="userSpaceOnUse">
      <feOffset dy="10" input="SourceAlpha"/>
      <feGaussianBlur stdDeviation="10" result="blur"/>
      <feFlood flood-opacity="0.557"/>
      <feComposite operator="in" in2="blur"/>
      <feComposite in="SourceGraphic"/>
    </filter>
  </defs>
  <g id="Group_8" data-name="Group 8" transform="translate(-3.782 69.7)">
    <g transform="matrix(1, 0, 0, 1, 3.78, -69.7)" filter="url(#Rectangle_43)">
      <rect id="Rectangle_43-2" data-name="Rectangle 43" width="789.768" height="722.581" rx="152" transform="matrix(0.62, -0.79, 0.79, 0.62, 115.51, 642.35)" fill="url(#linear-gradient)"/>
    </g>
    <g id="data_analysis_illustration" data-name="data analysis illustration" transform="translate(3.782 21.47)">
      <path id="Path_150" data-name="Path 150" d="M679.013,318.433c-1.151,2.72-2.277,5.509-3.345,8.289l-2.8-1.075c1.081-2.811,2.218-5.63,3.382-8.381Z" transform="translate(51.342 -87.221)" fill="#e6e6e6"/>
      <path id="Path_151" data-name="Path 151" d="M1168.016,554.761c-1.445,3.759-2.986,7.516-4.582,11.17l-2.745-1.2c2.389-5.47,4.641-11.146,6.666-16.8l2.82,1.012Q1169.133,551.857,1168.016,554.761Zm7.739-23.212-2.883-.817c1.639-5.782,3.1-11.682,4.331-17.538l2.931.619C1178.885,519.735,1177.412,525.7,1175.755,531.549Zm-20.19,50.868c-2.8,5.391-5.825,10.744-8.98,15.911l-2.556-1.562c3.118-5.107,6.1-10.4,8.877-15.731Zm27.722-86.6-2.968-.417c.832-5.939,1.466-11.984,1.885-17.966l2.988.208C1184.768,483.7,1184.127,489.811,1183.287,495.818Zm-46.756,117.766c-3.508,4.945-7.238,9.833-11.083,14.527l-2.317-1.9c3.8-4.644,7.488-9.476,10.958-14.365Zm49.307-154.2h-3c0-6-.2-12.065-.606-18.036l2.989-.2c.41,6.039.617,12.175.613,18.239Zm-72.465,182.476c-4.17,4.426-8.541,8.759-12.995,12.877l-2.035-2.2c4.4-4.071,8.725-8.354,12.848-12.731Zm69.986-218.875-2.968.407c-.819-5.941-1.853-11.927-3.075-17.791l2.934-.612c1.235,5.931,2.281,11.985,3.109,18Zm-96.825,243.7c-4.735,3.81-9.656,7.5-14.629,10.969l-1.713-2.457c4.916-3.429,9.783-7.077,14.465-10.845Zm89.383-279.438-2.884.809c-1.621-5.775-3.461-11.566-5.472-17.214l2.822-1.006c2.034,5.713,3.9,11.57,5.534,17.41ZM1056.561,687.6c-5.2,3.121-10.575,6.105-15.981,8.869l-1.363-2.668c5.344-2.733,10.661-5.684,15.8-8.77Zm107.112-334.753-2.747,1.194c-2.392-5.5-5-10.992-7.764-16.318l2.661-1.378c2.79,5.387,5.431,10.938,7.85,16.5Zm-139.64,351.38c-5.58,2.388-11.312,4.612-17.034,6.613l-.988-2.828c5.659-1.978,11.325-4.178,16.842-6.539Zm122.828-383.813-2.56,1.555c-3.114-5.121-6.449-10.206-9.913-15.113l2.447-1.727C1140.34,310.086,1143.713,315.229,1146.862,320.409ZM989.56,716.271c-5.85,1.607-11.828,3.03-17.767,4.232l-.595-2.937c5.872-1.188,11.783-2.6,17.57-4.184Zm136.223-425.715-2.322,1.891c-3.792-4.657-7.792-9.24-11.893-13.622l2.187-2.046c4.148,4.432,8.194,9.067,12.028,13.778Zm-172,432.953c-6.01.793-12.124,1.386-18.17,1.763l-.186-2.989c5.978-.374,12.023-.96,17.965-1.743Zm147.023-459.652-2.04,2.193c-4.4-4.092-8.993-8.084-13.661-11.864l1.885-2.328c4.722,3.822,9.371,7.86,13.816,12ZM917.371,725.783c-6.068-.039-12.211-.292-18.258-.749l.227-2.987c5.978.453,12.05.7,18.051.741ZM1072.4,240.859l-1.72,2.454c-4.913-3.444-10.007-6.759-15.14-9.855l1.547-2.565c5.192,3.13,10.344,6.483,15.314,9.965ZM880.953,723.024c-6-.874-12.05-1.969-17.979-3.255l.635-2.928c5.862,1.271,11.842,2.354,17.775,3.218ZM1041.121,222l-1.368,2.665c-5.329-2.733-10.828-5.32-16.345-7.691l1.183-2.751C1030.17,216.623,1035.731,219.24,1041.121,222ZM845.263,715.288c-5.817-1.686-11.66-3.6-17.366-5.676l1.027-2.815c5.643,2.058,11.421,3.946,17.173,5.613Zm161.312-504.878c-5.664-2-11.462-3.82-17.233-5.422l.8-2.886c5.837,1.62,11.7,3.464,17.428,5.481Zm-34.8-9.656c-5.885-1.2-11.878-2.219-17.812-3.015l.4-2.968c6,.8,12.063,1.83,18.015,3.049ZM935.99,195.96c-5.98-.383-12.048-.564-18.037-.536l-.015-3c6.057-.029,12.2.154,18.242.543Zm-36.073.174c-5.984.442-12.023,1.1-17.949,1.948l-.426-2.965c5.995-.86,12.1-1.522,18.154-1.97Zm-35.728,5.123c-5.872,1.258-11.768,2.734-17.522,4.383l-.826-2.878c5.819-1.67,11.782-3.162,17.721-4.435Zm-34.708,9.955c-5.639,2.042-11.28,4.3-16.769,6.727L811.5,215.2c5.551-2.45,11.256-4.739,16.958-6.8ZM796.44,225.8c-5.317,2.8-10.6,5.805-15.7,8.948l-1.571-2.55c5.161-3.178,10.5-6.224,15.881-9.049Zm-30.761,18.945c-4.889,3.5-9.714,7.2-14.34,11.009l-1.905-2.312c4.68-3.854,9.558-7.6,14.5-11.134Zm-27.892,22.98c-4.364,4.129-8.635,8.46-12.7,12.875l-2.2-2.029c4.109-4.465,8.43-8.846,12.843-13.023Zm-24.479,26.6c-3.747,4.684-7.378,9.558-10.793,14.488L700.05,307.1c3.454-4.987,7.127-9.917,10.917-14.654Zm-20.561,29.687c-3.064,5.15-5.991,10.476-8.7,15.833l-2.673-1.354c2.74-5.417,5.7-10.8,8.8-16.012Z" transform="translate(53.916 -125.028)" fill="#e6e6e6"/>
      <path id="Path_152" data-name="Path 152" d="M783.641,582.785l-1.218,2.737c-2.763-1.23-5.519-2.513-8.193-3.813l1.31-2.693C778.183,580.3,780.909,581.569,783.641,582.785Z" transform="translate(82.038 -7.952)" fill="#e6e6e6"/>
      <rect id="Rectangle_25" data-name="Rectangle 25" width="716.564" height="457.081" transform="translate(62.536 347.461)"/>
      <path id="Path_153" data-name="Path 153" d="M644.055,846.689c-.344-.562-8.448-14.095-11.258-42.2-2.577-25.782-.92-69.238,21.617-129.857,42.7-114.838-9.839-207.5-10.376-208.419l2.592-1.5c.136.234,13.692,23.858,21.7,61.476A268.2,268.2,0,0,1,657.223,675.68c-42.623,114.642-10.935,168.913-10.61,169.448Z" transform="translate(38.93 -42.568)" fill="#e6e6e6"/>
      <circle id="Ellipse_56" data-name="Ellipse 56" cx="19.471" cy="19.471" r="19.471" transform="translate(646.819 377.964)" fill="#6c63ff"/>
      <circle id="Ellipse_57" data-name="Ellipse 57" cx="19.471" cy="19.471" r="19.471" transform="translate(708.229 449.858)" fill="#e6e6e6"/>
      <circle id="Ellipse_58" data-name="Ellipse 58" cx="19.471" cy="19.471" r="19.471" transform="translate(666.29 497.788)" fill="#6c63ff"/>
      <circle id="Ellipse_59" data-name="Ellipse 59" cx="19.471" cy="19.471" r="19.471" transform="translate(717.216 538.229)" fill="#6c63ff"/>
      <circle id="Ellipse_60" data-name="Ellipse 60" cx="19.471" cy="19.471" r="19.471" transform="translate(651.312 601.137)" fill="#e6e6e6"/>
      <path id="Path_154" data-name="Path 154" d="M650.98,777.947s-19.471-47.93,38.943-83.877Z" transform="translate(43.769 26.891)" fill="#e6e6e6"/>
      <path id="Path_155" data-name="Path 155" d="M649.878,769.529S641.017,718.56,572.429,719Z" transform="translate(20.923 34.44)" fill="#e6e6e6"/>
      <path id="Path_156" data-name="Path 156" d="M482.432,489.531a138.608,138.608,0,0,1,41.321,27.954l12.022-12.022a155.233,155.233,0,0,0-48.9-32.5Z" transform="translate(-6.331 -40.07)" fill="#6c63ff"/>
      <path id="Path_157" data-name="Path 157" d="M342.842,564.605a138.084,138.084,0,0,1,27.332-48.474L358.132,504.09a154.8,154.8,0,0,0-31.7,56.119Z" transform="translate(-53.575 -30.643)" fill="#6c63ff"/>
      <path id="Path_158" data-name="Path 158" d="M537.469,510.679l-12.138,12.138a137.748,137.748,0,0,1,21.06,41.986l16.39-4.392a154.526,154.526,0,0,0-25.312-49.732Z" transform="translate(6.66 -28.647)" fill="#e6e6e6"/>
      <path id="Path_159" data-name="Path 159" d="M362.891,499.258l12.062,12.062a137.963,137.963,0,0,1,48.293-26.14l-4.392-16.391a154.7,154.7,0,0,0-55.964,30.469Z" transform="translate(-42.534 -41.333)" fill="#6c63ff"/>
      <path id="Path_160" data-name="Path 160" d="M337.937,588.586a138.623,138.623,0,0,1,1.518-20.46l-16.46-4.408a156.131,156.131,0,0,0,2.871,63.553l16.383-4.39a137.884,137.884,0,0,1-4.312-34.3Z" transform="translate(-55.22 -12.585)" fill="#6c63ff"/>
      <path id="Path_161" data-name="Path 161" d="M478,685.545a137.887,137.887,0,0,1-34.032,4.247c-4.252,0-8.456-.2-12.611-.582l-4.443,16.581a155.938,155.938,0,0,0,55.475-3.864Z" transform="translate(-23.146 24.31)" fill="#e6e6e6"/>
      <path id="Path_162" data-name="Path 162" d="M346.726,625.238l-16.57,4.44a155.283,155.283,0,0,0,34.457,50.858l12.022-12.022A138.662,138.662,0,0,1,346.726,625.238Z" transform="translate(-52.447 6.046)" fill="#6c63ff"/>
      <path id="Path_163" data-name="Path 163" d="M561.9,565.469l-16.49,4.418a138.462,138.462,0,0,1-1.4,44.827l16.415,4.4a156.287,156.287,0,0,0,1.471-53.644Z" transform="translate(12.317 -12.054)" fill="#e6e6e6"/>
      <path id="Path_164" data-name="Path 164" d="M426.874,481.977a138.475,138.475,0,0,1,52.734,3.078L484,468.672a156.221,156.221,0,0,0-61.543-3.185Z" transform="translate(-24.495 -42.842)" fill="#6c63ff"/>
      <path id="Path_165" data-name="Path 165" d="M426.8,690.314a137.565,137.565,0,0,1-45.04-20.917l-12.171,12.171a154.384,154.384,0,0,0,52.822,25.126Z" transform="translate(-40.506 19.419)" fill="#e6e6e6"/>
      <path id="Path_166" data-name="Path 166" d="M531.825,673.422l-12.033-12.034a138.491,138.491,0,0,1-37.552,24.268l4.438,16.564A155.133,155.133,0,0,0,531.825,673.422Z" transform="translate(-6.39 16.994)" fill="#e6e6e6"/>
      <path id="Path_167" data-name="Path 167" d="M544.449,619.631a138.1,138.1,0,0,1-21.728,38.27l12.089,12.089A154.821,154.821,0,0,0,560.9,624.04Z" transform="translate(5.87 4.348)" fill="#e6e6e6"/>
      <rect id="Rectangle_26" data-name="Rectangle 26" width="75.565" height="29.965" transform="translate(78.171 373.409)" fill="#e6e6e6"/>
      <rect id="Rectangle_27" data-name="Rectangle 27" width="75.565" height="29.965" transform="translate(78.171 419.009)" fill="#6c63ff"/>
      <path id="Path_168" data-name="Path 168" d="M527.969,197.561s8.51,27.963,3.647,36.473,8.51,26.747,30.394,18.236,23.1-18.236,23.1-18.236S576.6,220.66,574.168,192.7Z" transform="translate(7.459 -124.946)" fill="#ffb9b9"/>
      <path id="Path_169" data-name="Path 169" d="M449.395,407.141s-43.767,21.884-24.315,51.062c11.307,16.96,32.883,49.94,48.97,74.586a248.749,248.749,0,0,1,30.638,66.8l3.065,10.586,12.158,14.589,25.531-29.178s-37.689-69.3-37.689-82.672-30.394-55.925-30.394-55.925l30.394-19.452S473.71,398.631,449.395,407.141Z" transform="translate(-25.21 -60.372)" fill="#ffb9b9"/>
      <path id="Path_170" data-name="Path 170" d="M553.742,466.356s1.216,34.041,2.431,47.415c1,11.033-8.751,41.926-5.369,76.294a323.039,323.039,0,0,1-.737,66.807L545.232,701l36.473,3.647,12.158-99.693s7.295-70.514,3.647-93.614l1.216-48.631S571.979,452.983,553.742,466.356Z" transform="translate(12.687 -44.209)" fill="#ffb9b9"/>
      <path id="Path_171" data-name="Path 171" d="M521.9,358.544s-85.1,54.709-86.319,71.73c0,0,48.631-4.863,49.846,37.689,0,0,29.178-10.942,36.473-13.373s46.2-27.963,46.2-27.963,15.8,12.158,15.8,31.61-1.216,53.494,0,55.925,29.178-32.826,52.278-2.432l15.8-83.888s4.863-51.062-4.863-54.709L579.046,347.6Z" transform="translate(-20.519 -78.034)"/>
      <circle id="Ellipse_61" data-name="Ellipse 61" cx="36.473" cy="36.473" r="36.473" transform="translate(516.583 14.866)" fill="#ffb9b9"/>
      <path id="Path_172" data-name="Path 172" d="M549.119,231.361s41.14,10.865,46.709-9.764c0,0,50.552,9.764,59.063,42.59s-20.668,111.85-20.668,114.282,24.315,17.021,13.373,24.315-20.668-1.216-15.8,8.51,13.373,12.158,6.079,14.589-51.062-35.257-85.1-25.531-51.062,2.432-51.062,2.432L486.44,270.859a30.474,30.474,0,0,1,10.835-27.045c7.619-6.271,17.728-13.047,27.529-14.884,19.452-3.647,20.26-5.644,20.26-5.644Z" transform="translate(-5.181 -116.194)" fill="#d0cde1"/>
      <path id="Path_173" data-name="Path 173" d="M504.639,392.394s10.942,62,25.531,53.494-3.647-53.494-3.647-53.494Z" transform="translate(0.394 -64.469)" fill="#ffb9b9"/>
      <path id="Path_174" data-name="Path 174" d="M545.733,398.553s-18.959,60.04-2.088,59.237,21.493-49.121,21.493-49.121Z" transform="translate(10.089 -62.604)" fill="#ffb9b9"/>
      <path id="Path_175" data-name="Path 175" d="M503.088,565.578s-8.51-9.726-13.373,3.647-18.236,30.394-18.236,30.394-29.178,32.826-8.51,34.041,49.846-29.178,49.846-29.178l34.041-31.61s-11.283-27.477-16.583-27.72S526.188,577.736,503.088,565.578Z" transform="translate(-14.468 -18.207)" fill="#d0cde1"/>
      <path id="Path_176" data-name="Path 176" d="M560.106,640.111s-8.568,2.5-7.931-7.868c0,0-30.973,16.378-22.463,28.536s18.236,24.315,18.236,24.315,44.983,25.531,48.63,19.452,3.647-18.236,1.216-23.1-14.589-13.373-10.942-20.668-1.216-26.747-7.295-26.747S560.106,640.111,560.106,640.111Z" transform="translate(7.539 8.168)" fill="#d0cde1"/>
      <path id="Path_177" data-name="Path 177" d="M519.089,161.128s11.733-25.421,34.221-19.555,35.2,14.666,36.177,23.466-.489,22-.489,22-2.444-18.088-18.088-14.177-40.088.978-40.088.978l-3.911,35.2s-4.4-6.355-9.289-2.444S503.445,168.95,519.089,161.128Z" transform="translate(2.138 -140.694)"/>
      <path id="Path_178" data-name="Path 178" d="M618.341,254.97S589.163,334,591.595,343.721s0,10.942-3.647,13.373-13.373,27.963-13.373,27.963-6.079,14.589-10.942,18.237-4.863,13.373-4.863,13.373-12.158,12.158-9.726,14.589,2.432,6.079-2.432,9.726-9.726,8.51-7.295,9.726,19.452,14.589,24.315,13.373-2.432-6.079,3.647-8.51,9.726-6.079,7.295-7.295-9.726-1.216-2.432-3.647,32.826-18.236,41.336-37.689S662.765,269.8,638.122,253.266C638.121,253.266,628.068,240.381,618.341,254.97Z" transform="translate(10.7 -108.194)" fill="#d0cde1"/>
      <path id="Path_179" data-name="Path 179" d="M501.5,243.088l-.494.206a30.614,30.614,0,0,0-18.188,22.014c-2.655,12.707-5.267,31.085-3.2,48.295C483.264,344,485.7,357.37,490.559,367.1s6.079,6.079,4.863,13.373-7.295,1.216-1.216,10.942,9.726,7.295,7.295,12.158-6.079,4.863-1.216,10.942,4.863,8.51,6.079,10.942,4.863,20.668,4.863,20.668,19.452-6.079,30.394-3.647c0,0-9.726-17.021-7.295-20.668s6.079-4.863,2.432-8.51-9.726-2.432-3.647-6.079-4.863-41.336-4.863-41.336Z" transform="translate(-7.409 -109.685)" fill="#d0cde1"/>
      <rect id="Rectangle_28" data-name="Rectangle 28" width="1258.546" height="2.606" transform="translate(0 803.348)" fill="#3f3d56"/>
      <path id="Path_180" data-name="Path 180" d="M633.193,352.327l-1.9-1.788,142.953-151.7H890.612v2.606H775.376Z" transform="translate(191.184 60.216)"/>
      <rect id="Rectangle_29" data-name="Rectangle 29" width="137.331" height="4.655" transform="translate(1002.657 278.974)" fill="#6c63ff"/>
      <rect id="Rectangle_30" data-name="Rectangle 30" width="137.331" height="4.655" transform="translate(1002.657 298.759)" fill="#6c63ff"/>
      <rect id="Rectangle_31" data-name="Rectangle 31" width="137.331" height="4.655" transform="translate(1002.657 318.544)" fill="#6c63ff"/>
      <rect id="Rectangle_32" data-name="Rectangle 32" width="137.331" height="4.655" transform="translate(988.326 658.101)" fill="#6c63ff"/>
      <rect id="Rectangle_33" data-name="Rectangle 33" width="137.331" height="4.655" transform="translate(988.326 677.886)" fill="#6c63ff"/>
      <rect id="Rectangle_34" data-name="Rectangle 34" width="137.331" height="4.655" transform="translate(988.326 697.671)" fill="#6c63ff"/>
      <path id="Path_181" data-name="Path 181" d="M875.881,523.712H738.4l-.388-.564L631.177,368.109l2.144-1.477L739.766,521.106H875.881Z" transform="translate(191.148 111.032)"/>
    </g>
  </g>
</svg>
