<svg xmlns="http://www.w3.org/2000/svg" width="1476.464" height="1055.782" viewBox="0 0 1476.464 1055.782">
  <g id="Group_1305" data-name="Group 1305" transform="translate(0 0.003)">
    <path id="Path_1213" data-name="Path 1213" d="M940.256,511.059c-2.761-7.1,1.183-10.649,2.761-16.96s-3.55-26.032-3.55-26.032-16.565-68.234-21.693-81.644c-2.17-5.675-6.882-9.579-11.6-12.2-.32-1.741-.782-2.863-1.419-3.182-4.569-2.286-15.95-7.249-23.534-8.621a38.484,38.484,0,0,0-5.015-6.782,16.031,16.031,0,0,0,1.787-8.3c-.483-7.441-6.119-14.109-5.386-21.53.556-5.628,4.67-10.251,6.258-15.679a18.438,18.438,0,0,0-2.1-14.54l3.5,3.723a13.079,13.079,0,0,0-.976-15.8c-3.694-4.081-9.872-5.612-12.738-10.311-2.945-4.829-1.365-11.392-4.15-16.315-6.823-12.061-24.289-3.511-34.751-7.721-4.3-1.73-7.567-3.634-12.4-3.5a48.469,48.469,0,0,0-12.1,2.26,25.565,25.565,0,0,0-13.867,9.94,8.591,8.591,0,0,1,1.083-1.035c2.535-1.987,6.981-1.821,8.32,1.108a4.907,4.907,0,0,1,.39,2.34c-.22,3.531-3.3,6.169-6.37,7.936s-6.514,3.246-8.515,6.164c-3.3,4.816-1.36,11.28-1.359,17.119a24.818,24.818,0,0,1-9.405,19.27l11.129-4.55a84.115,84.115,0,0,0-10.278,30.141l15.048-12.432a66.166,66.166,0,0,0-9.883,29.372l12.079-12.376a6.108,6.108,0,0,1,.8,3.177l-1.26,4.858a31.57,31.57,0,0,1-1.478,2.82c-1.944,3.337-3.953,7.446-2.135,10.853l.008,0c-1.913,6.438-4.8,12.88-11.221,16.01,7.122.745,14.556-2.816,17.773-8.484a15.883,15.883,0,0,0,1.89,2.863c.207.259.411.516.615.773l-1.775,1.183-4.757,3.171s-31.159,6.311-29.187,18.143c.081.487.178,1.068.288,1.719l-8.965,15.241L739.1,457.418s-6.705,14.2-5.522,20.115,0,8.283,0,18.932-5.127,14.988,0,23.665,20.51,33.92,20.51,33.92l3.379,2.534a15.791,15.791,0,0,0,.171,4.565c3.155,15.777,32.737,166.838,32.737,166.838s-14.988,119.508,15.382,127c3.809.94,7.55,1.793,11.183,2.552l4.593,30.185-2.761,38.258s-20.9,47.33,17.355,50.091,20.9-41.019,20.9-41.019a20.8,20.8,0,0,0,2.367-12.227c-.39-3.511-3.674-21.782-6.895-39.355,14.519-1.741,11.8-17.15,9.868-23.925a3.923,3.923,0,0,0,1.76-2.193c.437-1.573-.581-7.763-2.427-16.436-1.5-8.622-4.074-22.58-5.827-32.036l9.437,1.536,39.836-233.495s.263-3.717.143-9.154a147.875,147.875,0,0,1,16.817-7.412c13.016-5.127,18.143-24.059,22.482-31.948S943.017,518.159,940.256,511.059ZM798.816,362.392a8.436,8.436,0,0,1,4.363-1.48c-.337,1.834-3.492,2.371-6.138,3.331A7.814,7.814,0,0,1,798.816,362.392ZM778.939,479.9c3.2,5.25-2.59,19.476-7.8,30.765-2.988-2.574-6.106-1.763-2.451-9.072a37.1,37.1,0,0,0,4.338-14.988c0-.9.462-7.528,4.349-10.281A20.731,20.731,0,0,0,778.939,479.9Zm-11.97,45.31c1.808-.736,4.547-1.867,8.245-3.124-1.772,2.325-3.794,5.1-5.829,8.12a6.109,6.109,0,0,1-2.416-5ZM894.9,530.386c-2.4-2.548-4.336-4.827-5.931-6.866q4.463,1.174,9.086,2.527a10.81,10.81,0,0,0,4.6-.306c.137,2.727.137,6.617.137,6.617l-4.32,2.991a25.333,25.333,0,0,0-3.568-4.963Zm12.24-13.679c-.046.04-.1.086-.143.128a26.163,26.163,0,0,0-1.053-4.593c-2.585-8.152-3.966-22.616-4.7-34.96l7.462,25.1s.395,12.621-1.564,14.325Z" transform="translate(209.022 -32.279)" fill="#d0cde1"/>
    <path id="Path_1214" data-name="Path 1214" d="M832.376,430.354s-40.464-69.549-41.729-77.136-21.5-21.5-21.5-21.5c-6.913-6.913-18.254-9.1-30.191-8.986,4.495-3.719-11.554-6.218-12.8-8.717-1.265-2.529-5.058-2.529-10.116-6.323s-17.683-.633-17.684-.632a46.6,46.6,0,0,1-3.923-12.6,35.257,35.257,0,0,0,8.33-22.8c0-.091-.006-.18-.007-.271.322.5.644,1,.966,1.524,2.369-14.189,6.55-25.983-1.419-38.927A43.644,43.644,0,0,0,677.476,215l-7.59,6.072,2.951-7.083a40.174,40.174,0,0,0-7.5-.434l-6.83,8.781,2.827-8.48a43.227,43.227,0,0,0-29.82,17.738c-8.692,12.533-8.111,29.956.439,42.587.029-.088.052-.175.08-.263a35.4,35.4,0,0,0,18.091,28.661l2.147,17.18h0a11.776,11.776,0,0,1-7.041,3.106c-3.794,0-7.587,10.116-7.587,10.116s-2.15,1.085-4.467,6.207c-5.969,4.064-24.178,16.829-30.934,25.75-4,1.967-8.289,6.341-7.593,16.095,1.265,17.7,0,99.9,0,99.9s-11.381,69.548-7.587,74.607-1.265,21.5-1.265,21.5l3.793.843V582.1s-11.41,52.894,6.323,50.581C625,628.884,603.5,585.89,603.5,585.89v-4.918l5.058,1.124s2.529-17.7,7.587-18.968c1.759-.44,3.824-5.167,5.77-11.141,1.135,9.32,1.817,14.934,1.817,14.934l7.912-1.758,2.2,8.081a10.906,10.906,0,0,0,1.7.77l-1.7,9.346s-1.265,10.116,0,16.439c.638,3.189,24.11,71.344,47.223,138.127l-.436,16.144s-11.381,12.645-8.852,21.5-6.322,82.194-6.322,82.194l-7.587,36.671,1.909.587-1.752,6.426a12.753,12.753,0,0,0-3.95,3.1c-10.116,11.381-22.761,44.258-22.761,44.258s-22.761,34.142,12.645,32.877,37.936-13.91,37.936-13.91,5.058-32.878,5.058-34.142-2.529-14.263-2.529-14.263l-.982-1.083.686-15.774,6.619,2.036s6.323-32.877,11.381-36.671c1.768-1.326,6.471-16.095,11.841-35.065,5.489,15.8,10.8,70.45,12.529,75.41a17.938,17.938,0,0,0-1.608,2.648,307.267,307.267,0,0,1-18.968,31.613s-40.465,24.026,0,30.348c0,0,22.761,1.265,34.142-6.323s41.729-18.968,41.729-21.5-7.587-39.706-15.174-35.659h0l-5.082-11.689,5.082-1.967L734.607,752a72.572,72.572,0,0,0,1.666-9.307c0-6.622,16.373-135.563,20.54-168.267,18.338,5.2,35.1-32.791,35.1-32.791l4.157-7.483,5.959,3.689s5.058-12.645,12.645-13.91,21.5-68.284,21.5-77.136a41.161,41.161,0,0,0-3.794-16.439ZM773.46,529.428a34.073,34.073,0,0,0-4.309-5.5,156.606,156.606,0,0,0,7.587-26.555c2.529-13.91-3.794-59.432-3.794-59.432l-.11-3.092c6.206,8.147,14.02,19.009,14.02,22.059a9.484,9.484,0,0,0,3.794,7.587l-7.587,26.555S778,503.7,776.737,510.019a64.57,64.57,0,0,0-1.265,11.381l1.792,1.109Z" transform="translate(130.574 -49.596)" fill="#d0cde1"/>
    <path id="Path_1215" data-name="Path 1215" d="M445.995,442.768l6.748-1.518-27.819-78.4L364.858,340.72s-.23.255-.655.695c-5.123-4.958-7.3-12.153-8.206-17.817a35.4,35.4,0,0,0,16.5-51.983c4.95-1.188,6.717-5.678,8.378-11.032a22.146,22.146,0,0,0-3.139-.684l2.335-5.236-4.1-.369,1.049-4.895-5.233,3.613A10.691,10.691,0,0,0,370,242.806a20.42,20.42,0,0,0-8.753-6.172,39.052,39.052,0,0,0-40.073,7l-.378-1.474a50.86,50.86,0,0,0-19.425,33.662c-1.675,13.2,4.664,26.632,12.9,37.074-.069-.456-.144-.91-.219-1.365q.534.736,1.1,1.444l1.013,38.489-2.537,2.174S271.076,372.9,269.417,395.9l0,.017c-2.554,11.2-3.819,69.363-3.819,69.363h3.5l-3.5,22.761-22.761,88.516s-29.084,37.935-3.794,45.523c15.716,4.715,20.2-13.519,21.343-28,.91,3.59,3.634,6.017,9.006,6.505.423.039.874.07,1.311.106-11.958,30.9-3.84,131.4-3.84,131.4-6.323,12.645,68.284,99.9,68.284,99.9l4.492-2.4.972,1.944c-2.5.24-4.2.452-4.2.452v39.2s-11.381,39.2,3.794,46.787c3.926,1.963,8.022.535,11.936-2.654-.748,12.1-1.82,30.15-1.82,34.267,0,6.323,16.439,17.7,16.439,17.7s3.794,13.91,34.142,13.91,7.587-36.671,7.587-36.671l-16.439-36.671s-1.23.6-4.952-2.429l1.333-14.664,7.413.654,10.116-147.949s8.852-131.51,10.116-151.742a140.806,140.806,0,0,0-.457-19.451l37.128-76.652ZM418.6,491.83l-3.794,13.22V475.813ZM260.734,585.605c.031-4.634-.2-7.788-.2-7.788l24.721-49.443-.7,15.3S264.763,568.72,260.734,585.605ZM318.7,728.3l24.026-84.723L356.639,746l-1,37.237a59.366,59.366,0,0,1-4.061-10.682C347.787,757.379,318.7,728.3,318.7,728.3Z" transform="translate(-61.946 -38.604)" fill="#d0cde1"/>
    <path id="Path_1216" data-name="Path 1216" d="M631.219,937.636c-11.848-4.878-34.847-15.333-37.635-20.908s-16.727-48.786-16.727-48.786l-3.59.261c-.463-19.63-2.439-95.708-5.471-104.8,0,0,14.636-120.571-14.636-168.661l-5.274-21.307c1.731-8.542,1.509-28.321.4-31.661-1.394-4.182,16.03-17.424,11.151-25.787s-18.121-36.938-18.121-36.938,1.394-18.121-17.424-34.847c0,0-5.5-31.132-30.279-31.6-3.35-5.846-8.039-15.142-6.659-19.281,1.477-4.432,7.126-18.247,10.316-25.98a33.387,33.387,0,0,0,4.865-2.708c19.708-8.83,33.6-30.056,33.6-54.853,0-26.545-15.915-49.009-37.847-56.542a18.809,18.809,0,1,0-36.394-6.749,18.8,18.8,0,0,1,20.978-25.738,18.8,18.8,0,0,0-20.143,31.394,18.653,18.653,0,0,0,.768,2.022c-20.637,8.328-35.359,30.084-35.359,55.614,0,23.681,12.67,44.109,30.976,53.591-.1,7.7-2.008,20.691-12.632,28.605-5.488-2.508-13.1-5.26-17.99-4.011-2.527-1.97-6.34-2.62-11.529,2.569-10.454,10.454-19.515,37.635-19.515,54.362s2.091,113.6,2.091,113.6-11.151,4.182-3.485,10.454a9.038,9.038,0,0,0,5.631,2.092l7.611,56.451s-4.879,54.362,13.939,55.059a7.446,7.446,0,0,0,4.212-1.034l-13.969,63.062s-32.059,20.908-57.149,62.028C343,827.79,336.56,840.819,333.342,848.49l-4.6-2.85-16.03,30.666s-35.544,21.605-27.878,37.635,14.636,20.211,14.636,20.211l4.879-2.091,9.06,16.727s23.7,34.15,62.028,16.727a14.009,14.009,0,0,0,0-16.727c-6.272-9.06-22.3-28.575-22.3-28.575l10.454-52.968-2.163-1.341,66.282-80.2s19.514-11.848,26.484-22.3,50.18-118.481,50.18-118.481l24.393,112.905s-1.394,41.12,4.879,67.6a286.956,286.956,0,0,1,6.668,45.171l-1.789.13,4.182,31.363s-18.121,44.6-5.576,48.089a183.785,183.785,0,0,0,27.181,4.879l1.394-4.879s53.665,29.272,73.179,7.666C638.885,957.848,643.067,942.515,631.219,937.636Zm-190.963-342.2c2.091,2.091,1.394,11.848,1.394,11.848l-4.182,27.181-4.176,18.853A202.5,202.5,0,0,0,429.8,626.8l-1.929-52.089a4.024,4.024,0,0,0,1.232.515c1.394,0,.7-11.848.7-11.848s.814-2.116,1.828-5.455c2.71,8.111,6.017,13.4,10.02,14.515l.7,9.06s-9.06,4.182-.7,4.182a6.586,6.586,0,0,0,1.436-.213l-.74,3.7S438.165,593.345,440.256,595.436Z" transform="translate(-32.267 -46.689)" fill="#d0cde1"/>
    <ellipse id="Ellipse_93" data-name="Ellipse 93" cx="560.245" cy="9.235" rx="560.245" ry="9.235" transform="translate(26.795 904.944)" fill="#3f3d56"/>
    <ellipse id="Ellipse_94" data-name="Ellipse 94" cx="616.266" cy="23.857" rx="616.266" ry="23.857" transform="translate(166.856 914.179)" fill="#3f3d56"/>
    <ellipse id="Ellipse_95" data-name="Ellipse 95" cx="302.44" cy="23.857" rx="302.44" ry="23.857" transform="translate(366.943 949.579)" fill="#3f3d56"/>
    <ellipse id="Ellipse_96" data-name="Ellipse 96" cx="134.674" cy="12.313" rx="134.674" ry="12.313" transform="translate(971.823 989.596)" fill="#3f3d56"/>
    <ellipse id="Ellipse_97" data-name="Ellipse 97" cx="63.874" cy="12.313" rx="63.874" ry="12.313" transform="translate(857.927 1031.153)" fill="#3f3d56"/>
    <ellipse id="Ellipse_98" data-name="Ellipse 98" cx="63.874" cy="12.313" rx="63.874" ry="12.313" transform="translate(337.7 978.822)" fill="#3f3d56"/>
    <path id="Path_1217" data-name="Path 1217" d="M465.909,555.072l6.157,43.1,30.783-3.078-3.078-44.635Z" transform="translate(251.188 296.771)" fill="#ffb8b8"/>
    <path id="Path_1218" data-name="Path 1218" d="M383.848,555.072l-6.157,43.1-30.783-3.078,3.078-44.635Z" transform="translate(187.031 296.771)" fill="#ffb8b8"/>
    <path id="Path_1219" data-name="Path 1219" d="M470.128,370.83s-27.7,32.322-21.548,83.113,16.93,166.226,16.93,166.226l7.7,204.7,49.252-3.078,7.7-173.922,24.626-140.061,66.183,163.148s32.322,152.374,33.861,152.374S701,818.718,701,818.718L679.451,638.639s-33.861-261.653-53.87-266.27S470.128,370.83,470.128,370.83Z" transform="translate(56.116 34.665)" fill="#2f2e41"/>
    <path id="Path_1220" data-name="Path 1220" d="M627.576,685.058s-27.7-18.47-38.478,3.078-1.539,36.939-1.539,36.939,9.235,6.156,4.617,12.313-6.156,46.174,33.861,40.018,20.009-47.713,20.009-47.713Z" transform="translate(129.538 200.646)" fill="#2f2e41"/>
    <path id="Path_1221" data-name="Path 1221" d="M473.49,685.058s27.7-18.47,38.478,3.078,1.539,36.939,1.539,36.939-9.235,6.156-4.617,12.313,6.157,46.174-33.861,40.018-20.009-47.713-20.009-47.713Z" transform="translate(57.372 200.646)" fill="#2f2e41"/>
    <path id="Path_1222" data-name="Path 1222" d="M486.768,178.673s13.852,38.478,3.078,60.026,16.93,46.174,16.93,46.174,72.339-36.939,63.1-55.409-24.626-43.1-21.548-58.487Z" transform="translate(77.185 -72.54)" fill="#ffb8b8"/>
    <circle id="Ellipse_99" data-name="Ellipse 99" cx="49.252" cy="49.252" r="49.252" transform="translate(541.635 22.25)" fill="#ffb8b8"/>
    <path id="Path_1223" data-name="Path 1223" d="M488.816,219.484s49.418,41.123,86.275-17.147l38.4,21.765L633.494,458.05s-112.357,64.644-166.227,9.235l7.7-217.018Z" transform="translate(66.672 -55.633)" fill="#d0cde1"/>
    <path id="Path_1224" data-name="Path 1224" d="M397.993,91.488,328.6,137.611l24.626,113.9-32.322,177,52.331-78.5Z" transform="translate(173.013 49.326)" fill="#575a89"/>
    <path id="Path_1225" data-name="Path 1225" d="M537.757,190.169,554.8,201.418l69.261,24.626L613.286,416.9,642.53,540.027l-41.557,21.548s-7.7-58.487-55.409-87.731S526.871,198.929,537.757,190.169Z" transform="translate(94.575 -62.193)" fill="#575a89"/>
    <path id="Path_1226" data-name="Path 1226" d="M462.737,384.478l20.009,13.852s-25.4,26.935-30.013,22.317a12.62,12.62,0,0,1-3.848-10l-4.617-10.774Z" transform="translate(54.272 42.565)" fill="#ffb8b8"/>
    <path id="Path_1227" data-name="Path 1227" d="M550.7,382.532l-6.8,10.69s-20.009,9.235-15.391,15.391,43.1,20.009,50.791,6.157l7.7-13.852Z" transform="translate(99.317 41.516)" fill="#ffb8b8"/>
    <path id="Path_1228" data-name="Path 1228" d="M463.244,227.478l-10.774,1.539-17.7,114.665s-6.926,20.778.77,70.031,15.317,81.324,15.317,81.324l33.936-24.376L469.4,430.643,489.41,284.426Z" transform="translate(47.608 -42.079)" fill="#575a89"/>
    <path id="Path_1229" data-name="Path 1229" d="M588.52,211.478l24.626,3.078s27.7,29.244,32.322,60.026S648.546,393.1,648.546,393.1l-70.8,112.357-38.478-27.7,53.87-95.426-26.165-113.9Z" transform="translate(105.489 -50.705)" fill="#575a89"/>
    <path id="Path_1230" data-name="Path 1230" d="M570.855,133.979a57.538,57.538,0,0,0-32.73-25.021l-10.007,8.006,3.891-9.337a52.967,52.967,0,0,0-9.89-.572l-9,11.576,3.727-11.18a56.988,56.988,0,0,0-39.313,23.385c-11.46,16.523-13.393,39.5-2.122,56.155,3.094-9.508,6.849-18.43,9.943-27.938a28.142,28.142,0,0,0,7.331.036l3.764-8.783,1.052,8.412c11.667-1.017,28.973-3.248,40.034-5.293l-1.076-6.453,6.435,5.362c3.389-.78,5.4-1.488,5.235-2.028,8.226,13.262,16.377,21.732,24.6,34.994C575.849,166.592,581.362,151.043,570.855,133.979Z" transform="translate(66.999 -107.022)" fill="#2f2e41"/>
    <ellipse id="Ellipse_100" data-name="Ellipse 100" cx="3.334" cy="6.668" rx="3.334" ry="6.668" transform="translate(631.793 63.287)" fill="#ffb8b8"/>
    <path id="Path_1231" data-name="Path 1231" d="M924.325,756.055c1.419,48.572-26.962,66.373-62.579,67.413q-1.241.036-2.471.044-2.478.019-4.907-.082c-32.212-1.337-57.709-18.436-59.029-63.608-1.365-46.748,56.659-107.487,61.012-111.98l.008,0c.165-.171.25-.257.25-.257S922.907,707.486,924.325,756.055Z" transform="translate(243.534 184.413)" fill="#6c63ff"/>
    <path id="Path_1232" data-name="Path 1232" d="M846.742,816.1l22.625-33.646-22.579,37.265.047,3.786q-2.477.019-4.907-.082l1.122-48.666-.031-.375.041-.073.107-4.6-24.777-35.973,24.748,32.532.088.972.848-36.769-21.4-37.3,21.462,30.837-.224-76.177v-.254l.007.249,1.421,60.037,19.5-24.387L845.4,713.044l.426,32.889,17.948-32.1L845.9,750.769l.237,18.288,26.1-44.713-26.022,51.093Z" transform="translate(255.975 184.415)" fill="#3f3d56"/>
    <path id="Path_1233" data-name="Path 1233" d="M388.326,709.055c1.419,48.572-26.962,66.373-62.579,67.413q-1.241.036-2.471.044-2.478.019-4.907-.083c-32.212-1.337-57.709-18.436-59.029-63.608-1.365-46.748,56.659-107.487,61.012-111.98l.008,0c.165-.171.25-.257.25-.257S386.907,660.486,388.326,709.055Z" transform="translate(-45.442 159.074)" fill="#6c63ff"/>
    <path id="Path_1234" data-name="Path 1234" d="M310.742,769.1l22.625-33.646-22.579,37.265.047,3.786q-2.478.019-4.907-.083l1.122-48.666-.031-.375.041-.073.107-4.6-24.777-35.973,24.748,32.532.088.972.848-36.769-21.4-37.3,21.462,30.837-.224-76.177v-.254l.007.249,1.421,60.037,19.5-24.387L309.4,666.044l.426,32.889,17.948-32.1L309.9,703.769l.237,18.288,26.1-44.713-26.022,51.093Z" transform="translate(-33.001 159.076)" fill="#3f3d56"/>
    <path id="Path_1235" data-name="Path 1235" d="M770.179,784.852c.833,28.511-15.826,38.959-36.732,39.57q-.728.021-1.45.026-1.454.011-2.88-.048c-18.907-.785-33.874-10.821-34.648-37.336-.8-27.44,33.257-63.092,35.813-65.73l0,0,.147-.151S769.346,756.343,770.179,784.852Z" transform="translate(189.156 224.093)" fill="#6c63ff"/>
    <path id="Path_1236" data-name="Path 1236" d="M724.639,820.1l13.28-19.749-13.253,21.874.028,2.222q-1.454.011-2.88-.048l.659-28.566-.018-.22.024-.043.063-2.7L708,771.754l14.526,19.1.051.571.5-21.583-12.562-21.892,12.6,18.1-.131-44.714v-.149l0,.146.834,35.241,11.449-14.315-11.411,17.351.25,19.305,10.535-18.841-10.5,21.679.139,10.735L739.6,766.239l-15.274,29.99Z" transform="translate(196.458 224.095)" fill="#3f3d56"/>
    <path id="Path_1237" data-name="Path 1237" d="M1079.553,158.358c.044-.14.091-.283.135-.423-.019.062-.043.121-.062.183Z" transform="translate(396.776 -79.572)" fill="#2f2e41"/>
    <path id="Path_1238" data-name="Path 1238" d="M989.848,986.261l114-169.53L990.081,1004.5l.238,19.076q-12.484.1-24.725-.416l5.654-245.215-.155-1.892.209-.366.541-23.171L847,571.258,971.7,735.174l.443,4.9L976.409,554.8,868.578,366.879,976.716,522.256l-1.129-383.83,0-1.278.037,1.256,7.158,302.51,98.275-122.88-97.954,148.94,2.145,165.719,90.434-161.735-90.1,186.1,1.194,92.148,131.515-225.3L987.178,781.353Z" transform="translate(271.398 -90.778)" fill="#3f3d56"/>
    <path id="Path_1239" data-name="Path 1239" d="M217.563,886.954l77.574-115.36L217.722,899.364l.162,12.981q-8.495.065-16.825-.283L204.907,745.2l-.105-1.287.142-.249.368-15.767L120.359,604.556,205.211,716.1l.3,3.333,2.906-126.07L135.042,465.482l73.585,105.73-.768-261.185,0-.869.025.855,4.871,205.849,66.874-83.616L212.976,533.595l1.46,112.767,61.538-110.056L214.662,662.941l.812,62.7,89.492-153.307-89.22,175.182Z" transform="translate(-120.359 1.957)" fill="#3f3d56"/>
  </g>
</svg>
