<svg xmlns="http://www.w3.org/2000/svg" xmlns:xlink="http://www.w3.org/1999/xlink" width="1920" height="1080" viewBox="0 0 1920 1080">
  <defs>
    <clipPath id="clip-Web_1920_10">
      <rect width="1920" height="1080"/>
    </clipPath>
  </defs>
  <g id="Web_1920_10" data-name="Web 1920 – 10" clip-path="url(#clip-Web_1920_10)">
    <rect width="1920" height="1080"/>
    <g id="Group_1310" data-name="Group 1310" transform="translate(397.965 122.379)">
      <path id="Path_1261" data-name="Path 1261" d="M901.095,772.322c11.927-27.939,20.337-58.347,16.356-88.44a97.632,97.632,0,0,0-8.8-29.405,89.122,89.122,0,0,0-13.8-20.846,12.5,12.5,0,0,0-15.818-2.544c-.389.224-.778.464-1.137.718a13.1,13.1,0,0,0-4.445,5.432,9.4,9.4,0,0,0-.464,1.287,13.377,13.377,0,0,0-.434,5.672,143.021,143.021,0,0,1-1.347,46.555q-1.145,5.858-2.8,11.612a116,116,0,0,0-7.886-8.874,97.75,97.75,0,0,0-24.617-18.137h-.015c-.045-.03-.075-.045-.12-.075-11.044-5.627-25.769-3.292-34.374.539-.569.239-1.107.509-1.631.763-4.489,2.3-6.719,4.953-4.8,6.689.434.374.868.763,1.272,1.152a143.209,143.209,0,0,1,31.515,42.41v.015a139.626,139.626,0,0,1,7.8,19.693c2.888,9.323,5.283,19.663,10.924,27.265a24.52,24.52,0,0,0,1.871,2.29l50.4-.4c.12-.06.225-.1.344-.165l2.005.075c-.075-.359-.165-.718-.254-1.077v-.03c-.045-.195-.1-.4-.15-.584-.045-.15-.075-.284-.1-.4.09-.224.18-.434.284-.658C900.945,772.666,901.02,772.5,901.095,772.322Z" transform="translate(58.484 56.65)" fill="#f0f0f0"/>
      <path id="Path_1262" data-name="Path 1262" d="M899.018,759.07a.659.659,0,0,1-1.032.449,27.338,27.338,0,0,0-6.749-3.577c-.015-.015-.015,0-.015,0a56.86,56.86,0,0,0-9.338-2.484c-.03,0-.045-.015-.075-.015-1.287-.254-2.574-.479-3.861-.718-6.255-1.152-12.615-2.544-18.032-6.106a18.372,18.372,0,0,1-8.425-12.465c-.793-5.013.209-10.056.628-15.054.03-.359.06-.733.075-1.092.03-.464.045-.913.045-1.362a29.031,29.031,0,0,0-2.664-13.169,52.23,52.23,0,0,0-9.517-13.379q-2.986-3.21-6.225-6.18h-.015c-.09-.09-.165-.165-.254-.24,0-.015-.015-.03-.03-.045a121.324,121.324,0,0,0-31.051-20.5c-.4-.18-.823-.374-1.242-.554-1.092-.494-2.185-.958-3.292-1.422.524-.254,1.063-.524,1.631-.763a124.192,124.192,0,0,1,34.553,21.938c.344.3.688.613,1.018.928q3.883,3.592,7.392,7.527a48.648,48.648,0,0,1,8.964,13.708,30.546,30.546,0,0,1,2.08,12.839c-.03.838-.09,1.676-.165,2.529-.464,5.043-1.5,10.251-.344,15.294,1.317,5.746,5.776,9.757,10.954,12.211a47.349,47.349,0,0,0,10.714,3.322c7.632,1.6,15.518,2.38,22.193,6.48h.015c.1.075.209.135.3.195.015,0,.015,0,.015.015a14.184,14.184,0,0,1,1.392.943c.03.015.06.045.09.06a.87.87,0,0,1,.12.1.665.665,0,0,1,.15.584Z" transform="translate(60.306 72.072)" fill="#fff"/>
      <path id="Path_1263" data-name="Path 1263" d="M823.148,683.936a18.264,18.264,0,0,0-.606-23.643c-.587-.651-1.626.23-1.039.882a16.912,16.912,0,0,1,.518,21.994C821.468,683.849,822.6,684.612,823.148,683.936Z" transform="translate(71.915 71.909)" fill="#fff"/>
      <path id="Path_1264" data-name="Path 1264" d="M843.1,700.162a35.2,35.2,0,0,1-24.811-6.527c-.708-.518-1.474.609-.767,1.126A36.616,36.616,0,0,0,843.35,701.5C844.222,701.4,843.964,700.059,843.1,700.162Z" transform="translate(69.883 88.509)" fill="#fff"/>
      <path id="Path_1265" data-name="Path 1265" d="M804.165,662.466c-.03.06-.06.1-.09.165a11.618,11.618,0,0,1-8.066,5.866c-.4-.389-.838-.778-1.272-1.152a.5.5,0,0,1,.224-.075,10.338,10.338,0,0,0,7.871-5.193c.075-.12.15-.254.209-.374a.675.675,0,0,1,.943-.179A.7.7,0,0,1,804.165,662.466Z" transform="translate(58.713 72.574)" fill="#fff"/>
      <path id="Path_1266" data-name="Path 1266" d="M331.352,176.37A101.6,101.6,0,0,0,229.866,277.856V666.784A101.6,101.6,0,0,0,331.352,768.271h904.806a101.6,101.6,0,0,0,101.486-101.486V277.856A101.6,101.6,0,0,0,1236.158,176.37Z" transform="translate(-221.72 -168.224)" fill="#fff" style="isolation: isolate"/>
      <path id="Path_1267" data-name="Path 1267" d="M1238.86,779.119H334.054A109.755,109.755,0,0,1,224.423,669.487V280.558A109.755,109.755,0,0,1,334.054,170.927H1238.86a109.756,109.756,0,0,1,109.632,109.632V669.487A109.755,109.755,0,0,1,1238.86,779.119Zm-904.805-591.9a93.447,93.447,0,0,0-93.341,93.341V669.487a93.447,93.447,0,0,0,93.341,93.341H1238.86a93.447,93.447,0,0,0,93.341-93.341V280.558a93.447,93.447,0,0,0-93.341-93.341Z" transform="translate(-224.423 -170.927)" fill="#e6e6e6" style="isolation: isolate"/>
      <path id="Path_1268" data-name="Path 1268" d="M755.87,230.179h-430.3a34.7,34.7,0,0,0-34.645,34.645V458.9a32.647,32.647,0,0,0,.57,6.136c.136.923.353,1.819.57,2.715a34.757,34.757,0,0,0,33.5,25.794h430.3c.706,0,1.412-.027,2.091-.082h.489v-.027a2.064,2.064,0,0,0,.407-.027c.136,0,.3-.027.435-.027a.243.243,0,0,0,.136-.027c.3-.027.6-.054.869-.082.489-.081.977-.136,1.439-.217a.461.461,0,0,1,.19-.027.537.537,0,0,1,.272-.054.1.1,0,0,1,.081-.027c.3-.054.6-.109.9-.19a3.134,3.134,0,0,0,.489-.108c.6-.136,1.195-.272,1.765-.462.271-.081.516-.136.787-.217.353-.109.733-.244,1.086-.38a4.262,4.262,0,0,0,.543-.19.141.141,0,0,0,.108-.054,24.272,24.272,0,0,0,2.308-.95c.652-.3,1.276-.624,1.9-.95.244-.109.462-.245.706-.38a.569.569,0,0,0,.163-.108c.624-.38,1.249-.76,1.846-1.113.027-.027.027-.054.054-.054a.027.027,0,0,0,.019-.008.026.026,0,0,0,.008-.019,20.769,20.769,0,0,0,1.846-1.3h.027c.163-.136.3-.244.434-.353.19-.136.38-.3.543-.435.326-.271.652-.543.95-.815a4.159,4.159,0,0,0,.516-.462c.462-.407.9-.842,1.33-1.276a7.669,7.669,0,0,0,.652-.706,11.265,11.265,0,0,0,.95-1.032c.271-.353.57-.706.842-1.059a12.163,12.163,0,0,0,.9-1.168c.489-.652.923-1.3,1.358-2.009.353-.57.706-1.167,1.032-1.765.163-.3.326-.625.489-.95.027,0,.027-.027.027-.054.3-.57.57-1.14.815-1.738.109-.244.217-.461.3-.706.217-.461.38-.95.57-1.439.3-.9.6-1.819.842-2.742.217-.9.434-1.792.57-2.715a32.647,32.647,0,0,0,.57-6.136V264.824A34.7,34.7,0,0,0,755.87,230.179Z" transform="translate(-191.406 -141.51)" fill="#6c63ff"/>
      <rect id="Rectangle_51" data-name="Rectangle 51" width="499.586" height="2.715" transform="translate(99.523 144.329)" fill="#fff" opacity="0.3"/>
      <rect id="Rectangle_52" data-name="Rectangle 52" width="499.586" height="2.715" transform="translate(99.523 174.196)" fill="#fff" opacity="0.3"/>
      <rect id="Rectangle_53" data-name="Rectangle 53" width="499.586" height="2.715" transform="translate(99.523 204.063)" fill="#fff" opacity="0.3"/>
      <rect id="Rectangle_54" data-name="Rectangle 54" width="499.586" height="2.715" transform="translate(99.523 233.929)" fill="#fff" opacity="0.3"/>
      <rect id="Rectangle_55" data-name="Rectangle 55" width="499.586" height="2.715" transform="translate(99.523 263.796)" fill="#fff" opacity="0.3"/>
      <rect id="Rectangle_56" data-name="Rectangle 56" width="499.586" height="2.715" transform="translate(99.523 293.662)" fill="#fff" opacity="0.3"/>
      <path id="Path_1269" data-name="Path 1269" d="M789.927,387.123c-.136.923-.353,1.819-.57,2.715H291.291a22.424,22.424,0,0,1-.326-2.715Z" transform="translate(-191.387 -63.595)" fill="#fff" opacity="0.3"/>
      <g id="Group_1307" data-name="Group 1307" transform="translate(99.523 206.778)" opacity="0.1">
        <path id="Path_1270" data-name="Path 1270" d="M790.515,377.689v42.03a32.647,32.647,0,0,1-.57,6.136c-.136.923-.353,1.819-.57,2.715-.244.923-.543,1.846-.842,2.742-.19.489-.353.977-.57,1.439-.081.244-.19.461-.3.706-.244.6-.516,1.167-.815,1.738,0,.027,0,.054-.027.054-.163.326-.326.652-.489.95-.326.6-.679,1.195-1.032,1.765-.435.706-.869,1.358-1.358,2.009a12.189,12.189,0,0,1-.9,1.167c-.271.353-.57.706-.842,1.059a11.259,11.259,0,0,1-.95,1.032,7.643,7.643,0,0,1-.652.706c-.434.434-.869.869-1.33,1.276a4.169,4.169,0,0,1-.516.462c-.3.271-.625.543-.95.814-.163.136-.353.3-.543.435-.136.109-.271.217-.434.353H776.8a20.76,20.76,0,0,1-1.846,1.3.026.026,0,0,1-.008.019.027.027,0,0,1-.02.008c-.027,0-.027.027-.054.054-.38.272-.787.516-1.195.76-.217.136-.434.244-.652.353a.566.566,0,0,1-.163.109c-.245.136-.462.272-.706.38-.624.326-1.249.652-1.9.95a24.287,24.287,0,0,1-2.308.95.141.141,0,0,1-.109.054,4.3,4.3,0,0,1-.543.19c-.353.136-.733.272-1.086.38-.271.081-.516.136-.787.217-.57.19-1.167.326-1.765.462a3.135,3.135,0,0,1-.489.109c-.3.082-.6.136-.9.19a.1.1,0,0,0-.082.027.537.537,0,0,0-.271.054.462.462,0,0,0-.19.027c-.462.081-.95.136-1.439.217-.271.027-.57.054-.869.082a.243.243,0,0,1-.136.027c-.3.027-.57.054-.842.081h-.054c-.3.027-.6.027-.9.054-.543.027-1.086.027-1.629.027h-430.3a34.757,34.757,0,0,1-33.5-25.794h-.76a22.446,22.446,0,0,1-.326-2.715c-.027-.516-.054-1.059-.054-1.575V376.929a64.567,64.567,0,0,1,16.807,2.742c14.77,4.507,29.133,12.137,44.555,12.137,1.222,0,2.5-.054,3.747-.163,16.237-1.358,28.862-11.431,39.37-22.807.842-.9,1.683-1.792,2.471-2.715,1.982-2.2,3.883-4.453,5.729-6.679a146.167,146.167,0,0,1,19.739-20.472c1.168-.95,2.335-1.846,3.53-2.715a50.148,50.148,0,0,1,23.948-9.585c1.113-.109,2.226-.19,3.34-.217,11.621-.353,22.536,3.828,32.473,9.8,1.439.869,2.878,1.765,4.263,2.715a162.142,162.142,0,0,1,13.711,10.4,262.134,262.134,0,0,0,21.178,16.752c.543.38,1.086.76,1.629,1.086.842.57,1.711,1.113,2.579,1.629a62.748,62.748,0,0,0,24.545,9.259c.3.054.624.109.95.136,14.146,1.656,27.314-2.525,39.342-9.394,1.493-.869,3.014-1.765,4.48-2.715a185.515,185.515,0,0,0,26.31-21.178c2.118-1.982,4.263-3.991,6.489-5.973,1-.9,2.009-1.819,3.041-2.715,16.128-14.173,34.727-27.151,56.692-27.151.923,0,1.874.027,2.824.081,15.8.76,29.677,8.417,41.324,18.137a126.776,126.776,0,0,1,9.693,8.933l.38.38c.76.76,1.52,1.547,2.226,2.335,8.688,9.1,16.7,18.816,26.147,27.151,1.032.95,2.091,1.846,3.177,2.715a88.67,88.67,0,0,0,10.318,7.385C788.777,376.739,789.646,377.228,790.515,377.689Z" transform="translate(-290.928 -309.105)"/>
      </g>
      <g id="Group_1308" data-name="Group 1308" transform="translate(99.523 158.995)" opacity="0.1">
        <path id="Path_1271" data-name="Path 1271" d="M790.515,352.516v83.056a32.647,32.647,0,0,1-.57,6.136c-.136.923-.353,1.819-.57,2.715-.244.923-.543,1.846-.842,2.742-.19.489-.353.977-.57,1.439-.081.244-.19.461-.3.706-.244.6-.516,1.167-.815,1.738,0,.027,0,.054-.027.054-.163.326-.326.652-.489.95-.326.6-.679,1.195-1.032,1.765-.435.706-.869,1.358-1.358,2.009a12.169,12.169,0,0,1-.9,1.167c-.271.353-.57.706-.842,1.059a11.258,11.258,0,0,1-.95,1.032,7.652,7.652,0,0,1-.652.706c-.434.434-.869.869-1.33,1.276a4.165,4.165,0,0,1-.516.462c-.3.271-.624.543-.95.814-.163.136-.353.3-.543.435-.136.109-.271.217-.434.353H776.8a20.768,20.768,0,0,1-1.846,1.3.026.026,0,0,1-.027.027c-.027,0-.027.027-.054.054-.38.272-.787.516-1.195.76-.217.136-.434.244-.652.353a.567.567,0,0,1-.163.109c-.244.136-.462.272-.706.38-.624.326-1.249.652-1.9.95a24.286,24.286,0,0,1-2.308.95.141.141,0,0,1-.109.054,4.293,4.293,0,0,1-.543.19c-.353.136-.733.272-1.086.38-.271.081-.516.136-.787.217-.57.19-1.167.326-1.765.462a3.133,3.133,0,0,1-.489.109c-.3.082-.6.136-.9.19a.1.1,0,0,0-.081.027.537.537,0,0,0-.272.054.461.461,0,0,0-.19.027c-.462.081-.95.136-1.439.217-.271.027-.57.054-.869.082a.243.243,0,0,1-.136.027c-.136,0-.3.027-.434.027a2.06,2.06,0,0,1-.407.027,1.434,1.434,0,0,1-.353.027h-.136c-.136.027-.3.027-.462.054-.543.027-1.086.027-1.629.027h-430.3a34.756,34.756,0,0,1-33.5-25.794c-.217-.9-.434-1.792-.57-2.715a32.643,32.643,0,0,1-.57-6.136V387.215c.95-.815,1.873-1.656,2.8-2.525.95-.9,1.873-1.792,2.8-2.715a208.35,208.35,0,0,0,22.02-27.151c.217-.3.435-.57.625-.869.434-.624.869-1.222,1.33-1.846a213.381,213.381,0,0,1,22.02-27.151c.923-.923,1.846-1.819,2.8-2.715,10.1-9.5,21.612-16.589,35.188-18.273,18.707-2.335,36.111,6.326,51.506,18.273,1.14.9,2.253,1.792,3.367,2.715,5.267,4.29,10.263,8.96,14.987,13.6,1.249,1.249,2.525,2.5,3.8,3.747,3.285,3.285,6.652,6.571,10.046,9.8.977.923,1.928,1.819,2.905,2.715,13.576,12.571,28.265,23.622,45.723,27.151,1.195.244,2.417.462,3.638.624a60.782,60.782,0,0,0,19.82-.624c1.086-.19,2.145-.435,3.231-.706,16.345-4.045,31.5-14.227,45.207-26.445.977-.9,1.982-1.792,2.959-2.715,7.005-6.489,13.657-13.44,19.875-20.282,2.063-2.281,4.181-4.589,6.3-6.869.869-.9,1.711-1.792,2.552-2.715a229.44,229.44,0,0,1,29.7-27.151c1.276-.95,2.552-1.846,3.828-2.715,14.363-9.8,30.057-16.1,47.3-15.1,14.227.815,27.233,6.679,38.935,15.1,1.195.869,2.389,1.765,3.584,2.715a162.659,162.659,0,0,1,24.246,24.083c.842,1,1.683,2.036,2.525,3.068.434.516.842,1.059,1.276,1.575l.9,1.141c7.2,8.987,14.119,18.327,21.477,27.151Z" transform="translate(-290.928 -277.174)"/>
      </g>
      <g id="Group_1309" data-name="Group 1309" transform="translate(99.523 166.08)" opacity="0.1">
        <path id="Path_1272" data-name="Path 1272" d="M790.515,315.873V433.221a32.647,32.647,0,0,1-.57,6.136c-.136.923-.353,1.819-.57,2.715-.244.923-.543,1.846-.842,2.742-.19.489-.353.977-.57,1.439-.081.244-.19.461-.3.706-.244.6-.516,1.167-.815,1.738,0,.027,0,.054-.027.054-.163.326-.326.652-.489.95-.326.6-.679,1.195-1.032,1.765-.435.706-.869,1.358-1.358,2.009a12.169,12.169,0,0,1-.9,1.167c-.271.353-.57.706-.842,1.059a11.258,11.258,0,0,1-.95,1.032,7.652,7.652,0,0,1-.652.706c-.434.434-.869.869-1.33,1.276a4.165,4.165,0,0,1-.516.462c-.3.271-.624.543-.95.814-.163.136-.353.3-.543.435-.136.109-.271.217-.434.353H776.8a20.768,20.768,0,0,1-1.846,1.3.026.026,0,0,1-.027.027c-.027,0-.027.027-.054.054-.38.272-.787.516-1.195.76-.217.136-.434.244-.652.353a.567.567,0,0,1-.163.109c-.244.136-.462.272-.706.38-.624.326-1.249.652-1.9.95a24.286,24.286,0,0,1-2.308.95.141.141,0,0,1-.109.054,4.293,4.293,0,0,1-.543.19c-.353.136-.733.272-1.086.38-.271.081-.516.136-.787.217-.57.19-1.167.326-1.765.462a3.133,3.133,0,0,1-.489.109c-.3.082-.6.136-.9.19a.1.1,0,0,0-.081.027.537.537,0,0,0-.272.054.461.461,0,0,0-.19.027c-.462.081-.95.136-1.439.217-.271.027-.57.054-.869.082a.243.243,0,0,1-.136.027c-.136,0-.3.027-.434.027a2.06,2.06,0,0,1-.407.027.1.1,0,0,1-.054.027h-.434c-.679.054-1.385.081-2.091.081h-430.3a34.756,34.756,0,0,1-33.5-25.794c-.217-.9-.434-1.792-.57-2.715a32.643,32.643,0,0,1-.57-6.136v-70.1q4.113-5.335,8.254-10.643c.706-.923,1.412-1.819,2.118-2.715,3.72-4.779,7.467-9.5,11.322-14.119,3.693-4.426,7.575-8.8,11.621-13.033.869-.9,1.738-1.819,2.634-2.715a150.916,150.916,0,0,1,35.107-27.151c1.765-.977,3.557-1.873,5.376-2.715a83.9,83.9,0,0,1,30.708-8.01,85.282,85.282,0,0,1,40.564,8.01c1.9.814,3.774,1.738,5.62,2.715,13.277,6.842,25.74,16.427,37.415,27.151,1,.869,1.955,1.792,2.932,2.715,9.259,8.688,18.028,18,26.391,27.151.625.679,1.249,1.385,1.873,2.063.19.217.407.434.6.652,8.145,8.96,16.834,18.029,26.065,26.445.244.244.516.462.787.706,1,.923,2.009,1.819,3.041,2.715,3.638,3.231,7.385,6.326,11.187,9.259a145.576,145.576,0,0,0,29.242,17.893c2.2,1,4.426,1.9,6.679,2.715a80.3,80.3,0,0,0,38.989,4.616,77.682,77.682,0,0,0,17.676-4.616c2.172-.814,4.29-1.738,6.38-2.715,13.766-6.516,26.2-16.372,37.985-27.151.977-.9,1.955-1.792,2.932-2.715,6.706-6.3,13.223-12.843,19.658-19.169,2.715-2.661,5.485-5.349,8.336-7.983.978-.9,1.982-1.792,2.987-2.715,3.421-3.068,6.951-6.082,10.589-8.933A136.025,136.025,0,0,1,765.1,322.607c.9-.407,1.819-.788,2.715-1.141,1.385-.57,2.769-1.086,4.154-1.575a72.81,72.81,0,0,1,18.544-4.019Z" transform="translate(-290.928 -281.909)"/>
      </g>
      <circle id="Ellipse_106" data-name="Ellipse 106" cx="8.145" cy="8.145" r="8.145" transform="translate(198.626 166.051)" fill="#fff"/>
      <circle id="Ellipse_107" data-name="Ellipse 107" cx="8.145" cy="8.145" r="8.145" transform="translate(323.522 255.65)" fill="#fff"/>
      <circle id="Ellipse_108" data-name="Ellipse 108" cx="8.145" cy="8.145" r="8.145" transform="translate(491.861 195.917)" fill="#fff"/>
      <path id="Path_1273" data-name="Path 1273" d="M872.159,353.732H680.092a6.93,6.93,0,0,0,0,13.86H872.159a6.93,6.93,0,1,0,0-13.86Z" transform="translate(-1.644 -80.172)" fill="#e6e6e6"/>
      <path id="Path_1274" data-name="Path 1274" d="M872.159,423.86H680.092a6.93,6.93,0,0,0,0,13.86H872.159a6.93,6.93,0,1,0,0-13.861Z" transform="translate(-1.644 -45.356)" fill="#e6e6e6"/>
      <path id="Path_1275" data-name="Path 1275" d="M872.159,493.989H680.092a6.93,6.93,0,1,0,0,13.86H872.159a6.93,6.93,0,1,0,0-13.861Z" transform="translate(-1.644 -10.541)" fill="#e6e6e6"/>
      <circle id="Ellipse_109" data-name="Ellipse 109" cx="17.307" cy="17.307" r="17.307" transform="translate(969.587 263.702)" fill="#f2f2f2" style="isolation: isolate"/>
      <path id="Path_1276" data-name="Path 1276" d="M884.538,370.706a1.925,1.925,0,0,1-1.54-.77l-4.722-6.3a1.925,1.925,0,1,1,3.08-2.31l3.089,4.118,7.934-11.9a1.925,1.925,0,0,1,3.2,2.136l-9.443,14.165a1.926,1.926,0,0,1-1.549.857Z" transform="translate(99.995 -80.689)" fill="#fff"/>
      <circle id="Ellipse_110" data-name="Ellipse 110" cx="17.307" cy="17.307" r="17.307" transform="translate(969.587 368.646)" fill="#f2f2f2" style="isolation: isolate"/>
      <path id="Path_1277" data-name="Path 1277" d="M884.538,440.834a1.925,1.925,0,0,1-1.54-.77l-4.722-6.3a1.925,1.925,0,1,1,3.08-2.31l3.089,4.118,7.934-11.9a1.925,1.925,0,0,1,3.2,2.136l-9.443,14.165a1.926,1.926,0,0,1-1.548.857Z" transform="translate(99.995 -45.874)" fill="#fff"/>
      <circle id="Ellipse_111" data-name="Ellipse 111" cx="17.307" cy="17.307" r="17.307" transform="translate(969.587 473.589)" fill="#f2f2f2" style="isolation: isolate"/>
      <path id="Path_1278" data-name="Path 1278" d="M872.159,283.6H680.092a6.93,6.93,0,0,0,0,13.86H872.159a6.93,6.93,0,1,0,0-13.86Z" transform="translate(-1.644 -114.987)" fill="#e6e6e6"/>
      <circle id="Ellipse_112" data-name="Ellipse 112" cx="17.307" cy="17.307" r="17.307" transform="translate(969.587 158.759)" fill="#6c63ff"/>
      <path id="Path_1279" data-name="Path 1279" d="M884.538,300.578a1.925,1.925,0,0,1-1.54-.77l-4.722-6.3a1.925,1.925,0,1,1,3.08-2.31l3.089,4.118,7.934-11.9a1.925,1.925,0,1,1,3.2,2.136L886.14,299.72a1.926,1.926,0,0,1-1.549.857Z" transform="translate(99.995 -115.504)" fill="#fff"/>
      <circle id="Ellipse_113" data-name="Ellipse 113" cx="17.307" cy="17.307" r="17.307" transform="translate(912.165 158.759)" fill="#f2f2f2" style="isolation: isolate"/>
      <circle id="Ellipse_114" data-name="Ellipse 114" cx="17.307" cy="17.307" r="17.307" transform="translate(912.165 263.702)" fill="#f2f2f2" style="isolation: isolate"/>
      <circle id="Ellipse_115" data-name="Ellipse 115" cx="17.307" cy="17.307" r="17.307" transform="translate(912.165 368.646)" fill="#f2f2f2" style="isolation: isolate"/>
      <circle id="Ellipse_116" data-name="Ellipse 116" cx="17.307" cy="17.307" r="17.307" transform="translate(912.165 473.589)" fill="#f2f2f2" style="isolation: isolate"/>
      <path id="Path_1280" data-name="Path 1280" d="M884.538,510.962a1.925,1.925,0,0,1-1.54-.77l-4.722-6.3a1.925,1.925,0,1,1,3.08-2.31l3.089,4.118,7.934-11.9a1.925,1.925,0,0,1,3.2,2.136L886.14,510.1a1.926,1.926,0,0,1-1.548.857Z" transform="translate(99.995 -11.058)" fill="#fff"/>
      <path id="Path_1281" data-name="Path 1281" d="M874.014,771.739a.637.637,0,0,1-.224.524.862.862,0,0,1-.4.165.585.585,0,0,1-.689-.434c-2.065-6.944-7.123-12.271-11.912-17.494-4.31-4.684-8.545-9.622-10.715-15.713a18.375,18.375,0,0,1,.778-15.039,26.519,26.519,0,0,1,2.589-3.921c2.14-2.724,4.684-5.148,6.974-7.722.239-.269.479-.554.7-.823.314-.344.6-.7.868-1.062a28.951,28.951,0,0,0,5.791-12.121,52.068,52.068,0,0,0,.464-16.416q-.449-4.354-1.242-8.649c-.03-.135-.045-.254-.075-.374a120.866,120.866,0,0,0-12.45-35.122c-.225-.4-.434-.808-.659-1.2-.958-1.736-1.945-3.442-2.993-5.118.359-.254.748-.494,1.137-.718a123.944,123.944,0,0,1,8.934,17.4,121.588,121.588,0,0,1,7.288,24.018c.1.449.18.913.254,1.362.628,3.457,1.092,6.958,1.377,10.445a48.394,48.394,0,0,1-1.107,16.341,30.5,30.5,0,0,1-6.091,11.538q-.763.965-1.616,1.885c-2.275,2.484-4.789,4.894-6.839,7.6a22.614,22.614,0,0,0-2.649,4.4c-2.409,5.387-1.272,11.283,1.392,16.341,4.819,9.2,14.007,15.473,18.9,24.5a27.849,27.849,0,0,1,2.185,5.223A.752.752,0,0,1,874.014,771.739Z" transform="translate(85.565 57.233)" fill="#fff"/>
      <path id="Path_1282" data-name="Path 1282" d="M861.811,665.788a18.264,18.264,0,0,0,13.751-19.242c-.077-.873-1.437-.8-1.361.079A16.913,16.913,0,0,1,861.373,664.5c-.851.21-.409,1.5.438,1.29Z" transform="translate(91.567 64.89)" fill="#fff"/>
      <path id="Path_1283" data-name="Path 1283" d="M863.573,690.757a35.2,35.2,0,0,1-15.88-20.149c-.254-.84-1.544-.4-1.29.437a36.616,36.616,0,0,0,16.568,20.934c.759.442,1.358-.782.6-1.222Z" transform="translate(84.346 76.918)" fill="#fff"/>
      <path id="Path_1284" data-name="Path 1284" d="M855.6,635.593c-.06.03-.1.045-.165.075a11.528,11.528,0,0,1-8.56.4,9.417,9.417,0,0,1,.464-1.287,10.225,10.225,0,0,0,7.438-.314c.135-.045.254-.1.389-.165a.685.685,0,0,1,.868.419A.72.72,0,0,1,855.6,635.593Z" transform="translate(84.598 59.102)" fill="#fff"/>
      <path id="Path_1285" data-name="Path 1285" d="M811.149,505.174a14.01,14.01,0,0,0-3.859-21.133l9.037-48.961L792.5,445.166l-4.929,44.948a14.086,14.086,0,0,0,23.577,15.06Z" transform="translate(54.458 -39.786)" fill="#ffb6b6"/>
      <path id="Path_1286" data-name="Path 1286" d="M856.014,425.774l-7.572-25.455-53.394-83.308a39.76,39.76,0,0,0-62.387,49.2,36.992,36.992,0,0,0,3.636,4.34l69.151,71.321,3.936,4.07,6.225,15.743,2.454,71.785,2.2.524,19.379,4.564,2.709.643,4.534-23.45,2.843-11.208a119.032,119.032,0,0,0,3.636-29.241c0-3.038-.1-6.091-.344-9.128Z" transform="translate(24.133 -105.298)" fill="#3f3d56"/>
      <path id="Path_1287" data-name="Path 1287" d="M548.182,568.672H529.641l-8.82-71.516,27.364,0Z" transform="translate(258.564 246.815)" fill="#ffb6b6"/>
      <path id="Path_1288" data-name="Path 1288" d="M781.3,714.569l-19.783-8.036-.584-.239-10.924,8.275a23.259,23.259,0,0,0-23.24,22.255c-.03.326-.03.67-.03,1.015v.763h59.783V714.569Z" transform="translate(24.954 94.859)" fill="#2f2e41"/>
      <path id="Path_1289" data-name="Path 1289" d="M535.366,540.679l-15.981,9.4L475.514,492.92,499.1,479.043Z" transform="translate(236.071 237.823)" fill="#ffb6b6"/>
      <path id="Path_1290" data-name="Path 1290" d="M764.882,703.108l-2.17-3.7-7.856-13.348-4.085,2.409-.419.239-21.13,3.113-.629.09-5.208,12.675a23.269,23.269,0,0,0-8.26,31.859l.389.643,51.523-30.318Z" transform="translate(17.591 84.816)" fill="#2f2e41"/>
      <path id="Path_1291" data-name="Path 1291" d="M842.348,423.712c8.693,26.218,7.774,54.676-2.089,85.22l-2.574,105-8.269,66.231a113.406,113.406,0,0,1,7.546,40.664c-.035,36.442-2.485,88.213-14.908,112.533h-29.4l-6.636-108.3L778.1,670.6l-.976-58.352-.851-50.892L744.305,608.1l-31.062,45.421L744.117,705.6l26.936,83.8-28.433,23.943L710.366,752.2l-15.632-18.162-42.673-92.377,3.835-12.862a304.273,304.273,0,0,1,34.093-75.167h0l42.445-98.512Z" transform="translate(-12.119 -45.43)" fill="#2f2e41"/>
      <path id="Path_1292" data-name="Path 1292" d="M822.472,483.282l-4.849-9.7.434-23.255,1.452-78.624a75.427,75.427,0,0,0-22.342-54.89A73.865,73.865,0,0,0,782.86,305.7l-10.415-6.225-5.268-13.378L718.6,287.276l-.1,12.974-.045,4.564-17.4,27.744.015.12.359,50.49.718,100.5,4.8,15.578-7.258,18.137,3.861,11.553,3.083-.494,103.824-16.6a20.385,20.385,0,0,0,11.268-8.949,18.536,18.536,0,0,0,1.332-2.6,20.424,20.424,0,0,0-.583-17.015Z" transform="translate(11.525 -113.751)" fill="#3f3d56"/>
      <circle id="Ellipse_117" data-name="Ellipse 117" cx="44.139" cy="44.139" r="44.139" transform="translate(705.822 67.423)" fill="#ffb6b6"/>
      <path id="Path_1293" data-name="Path 1293" d="M767.817,302.6c4.662-3.28,9.383-9.524,12.527-14.2a53,53,0,0,0,7.6-42.426,16.161,16.161,0,0,0-3.907-7.731A6.949,6.949,0,0,0,776,236.779a14.484,14.484,0,0,0-.747-11.484,25.526,25.526,0,0,0-7.671-8.884,42.512,42.512,0,0,0-43.359-4.526c-2.739,1.316,1.652-8.613-1.22-7.622a11.764,11.764,0,0,1-8.881-.033c-2.733-1.329-11.617,6.913-10.615,4.044a13.405,13.405,0,0,0-2.794,22.49c2.3,1.891,5.164,2.959,7.68,4.557a21.868,21.868,0,0,1,7.079,28.125,28.972,28.972,0,0,1,8.475-3.823A9.806,9.806,0,0,1,732.7,261.6a11.017,11.017,0,0,1,2.784,8.277c-.057,3-.729,5.957-.768,8.954-.113,8.793-4.589,25.57,2.29,30.148C742.44,312.592,761.452,307.081,767.817,302.6Z" transform="translate(9.602 -154.465)" fill="#2f2e41"/>
      <path id="Path_1294" data-name="Path 1294" d="M562.39,324.3a14.01,14.01,0,0,0,21.2,3.467l43.077,24.964L625.175,326.9,584.5,307.158A14.086,14.086,0,0,0,562.39,324.3Z" transform="translate(-57.638 -105.38)" fill="#ffb6b6"/>
      <path id="Path_1295" data-name="Path 1295" d="M830.168,321.226a39.762,39.762,0,0,0-52.915-24.691c-.479.195-.958.4-1.437.614l-95.564,43.5-37.2-4.415L594.9,319.415l-1.227,1.9-10.819,16.715-1.511,2.334L633,370.908l5.477,1.137a37.012,37.012,0,0,1,23.464,15.967l20.023,6.584,78.22-15.144,43.846-8.5,2.484-.479A39.862,39.862,0,0,0,832.053,333.3a39.465,39.465,0,0,0-1.885-12.076Z" transform="translate(-47.231 -110.035)" fill="#3f3d56"/>
      <path id="Path_1296" data-name="Path 1296" d="M1069.566,730.256H548.818a1.782,1.782,0,1,1,0-3.564h520.748a1.782,1.782,0,1,1,0,3.564Z" transform="translate(-64.26 104.986)" fill="#ccc"/>
      <path id="Path_1297" data-name="Path 1297" d="M628.9,450.862H312.625a6.93,6.93,0,0,0,0,13.86H628.9a6.93,6.93,0,0,0,0-13.86Z" transform="translate(-184.075 -31.951)" fill="#e6e6e6"/>
      <circle id="Ellipse_118" data-name="Ellipse 118" cx="17.307" cy="17.307" r="17.307" transform="translate(543.895 409.053)" fill="#6c63ff"/>
      <path id="Path_1298" data-name="Path 1298" d="M600.071,467.836a1.925,1.925,0,0,1-1.54-.77l-4.722-6.3a1.925,1.925,0,1,1,3.08-2.31l3.089,4.118,7.934-11.9a1.925,1.925,0,0,1,3.2,2.136l-9.443,14.165a1.926,1.926,0,0,1-1.548.857Z" transform="translate(-41.23 -32.468)" fill="#fff"/>
      <circle id="Ellipse_119" data-name="Ellipse 119" cx="17.307" cy="17.307" r="17.307" transform="translate(486.473 409.053)" fill="#f2f2f2" style="isolation: isolate"/>
      <path id="Path_1299" data-name="Path 1299" d="M627.9,506.862H311.625a6.93,6.93,0,0,0,0,13.86H627.9a6.93,6.93,0,0,0,0-13.86Z" transform="translate(-184.571 -4.15)" fill="#e6e6e6"/>
      <circle id="Ellipse_120" data-name="Ellipse 120" cx="17.307" cy="17.307" r="17.307" transform="translate(542.398 492.854)" fill="#f2f2f2" style="isolation: isolate"/>
      <path id="Path_1300" data-name="Path 1300" d="M599.071,523.836a1.925,1.925,0,0,1-1.54-.77l-4.722-6.3a1.925,1.925,0,0,1,3.08-2.31l3.089,4.118,7.934-11.9a1.925,1.925,0,1,1,3.2,2.136l-9.443,14.165a1.927,1.927,0,0,1-1.548.857Z" transform="translate(-41.727 -4.667)" fill="#fff"/>
      <circle id="Ellipse_121" data-name="Ellipse 121" cx="17.307" cy="17.307" r="17.307" transform="translate(484.976 492.854)" fill="#f2f2f2" style="isolation: isolate"/>
    </g>
  </g>
</svg>
